<svg width="120" height="36" viewBox="0 0 120 36" fill="none" xmlns="http://www.w3.org/2000/svg">
<path d="M64.2456 16.7466C63.1611 16.7466 62.1368 16.4841 61.2373 16.0236L66.3071 13.0971L58.0052 8.30276C58.8488 5.68611 61.3234 3.79248 64.2456 3.79248C67.865 3.79248 70.7958 6.69317 70.7958 10.2695C70.7958 13.8459 67.865 16.7466 64.2456 16.7466Z" fill="#121535"/>
<path d="M54.8635 19.7031V6.49072L58.0052 8.30258C57.8073 8.92231 57.6997 9.58078 57.6997 10.2694C57.6997 12.7741 59.1371 14.9475 61.2416 16.0234L54.8678 19.7031H54.8635Z" fill="#121535"/>
<path d="M6.89021 31.0822L6.66211 26.9808C8.43954 26.9808 9.76077 26.559 10.6258 25.7155C11.4909 24.8719 11.9212 23.6023 11.9212 21.9024V7.02881H16.6166V21.8464C16.6166 24.0413 16.2895 25.8188 15.631 27.1744C14.9769 28.5301 13.9354 29.5242 12.5065 30.1483C11.0777 30.7723 9.2056 31.0865 6.89021 31.0865V31.0822Z" fill="#121535"/>
<path d="M30.7241 30.355C28.9854 30.355 27.3844 30.058 25.9126 29.4641C24.445 28.8702 23.1668 28.0353 22.0866 26.9637C21.002 25.8921 20.1671 24.6354 19.5689 23.1893C18.975 21.7476 18.678 20.1724 18.678 18.4639C18.678 16.7553 18.975 15.1801 19.5689 13.7298C20.1628 12.2795 21.002 11.0228 22.0866 9.95546C23.1668 8.88814 24.445 8.05753 25.9126 7.46362C27.3801 6.86971 28.9854 6.57275 30.7241 6.57275C32.4628 6.57275 34.0638 6.86971 35.527 7.46362C36.9903 8.05753 38.2599 8.88814 39.3315 9.95546C40.4031 11.0228 41.238 12.2795 41.8405 13.7298C42.4431 15.1801 42.74 16.7553 42.74 18.4639C42.74 20.1724 42.4388 21.7476 41.8405 23.1893C41.2423 24.6311 40.4031 25.8921 39.3315 26.9637C38.2599 28.0353 36.9903 28.8702 35.527 29.4641C34.0638 30.058 32.4628 30.355 30.7241 30.355ZM30.7241 26.2536C31.7484 26.2536 32.7038 26.0556 33.5817 25.6597C34.4597 25.2637 35.2258 24.7128 35.8756 24.007C36.5255 23.3012 37.0333 22.4792 37.3948 21.5367C37.7563 20.5985 37.9371 19.5742 37.9371 18.4639C37.9371 17.3535 37.7563 16.3292 37.3948 15.3824C37.0333 14.4356 36.5298 13.6136 35.8756 12.9035C35.2258 12.1977 34.4597 11.6468 33.5817 11.2552C32.7038 10.8635 31.7484 10.6699 30.7241 10.6699C29.6998 10.6699 28.7272 10.8678 27.8492 11.2552C26.9713 11.6468 26.2009 12.1934 25.5467 12.9035C24.8926 13.6136 24.3847 14.4356 24.0232 15.3824C23.6617 16.3292 23.481 17.3535 23.481 18.4639C23.481 19.5742 23.6617 20.5985 24.0232 21.5453C24.3847 22.4921 24.8926 23.3184 25.5467 24.0242C26.2009 24.7301 26.9713 25.2809 27.8492 25.6726C28.7272 26.0642 29.6869 26.2579 30.7241 26.2579V26.2536Z" fill="#121535"/>
<path d="M59.7482 29.8987H44.8058V7.02881H49.5011V25.7972H59.7482V29.8987Z" fill="#121535"/>
<path d="M68.6655 29.8988H63.9702V18.8555H68.6655V29.8988Z" fill="#121535"/>
<path d="M93.5925 29.8987H88.1957L77.5096 14.2848V29.8987H72.8142V7.02881H78.2111L88.8972 22.6727V7.02881H93.5925V29.8987Z" fill="#121535"/>
<path d="M107.192 29.8987H102.497V11.1302H95.7573V7.02881H113.945V11.1302H107.192V29.8987Z" fill="#121535"/>
</svg>
