<svg width="427" height="214" viewBox="0 0 427 214" fill="none" xmlns="http://www.w3.org/2000/svg">
<path d="M197.769 19.2832H6.20855C2.78193 19.2887 0.00547368 22.0915 0 25.5506V156.041C0.00329475 159.501 2.78101 162.305 6.20855 162.309H197.769C201.196 162.305 203.974 159.501 203.977 156.041V25.5506C203.972 22.0915 201.196 19.2887 197.769 19.2832Z" fill="#E6E6E6"/>
<path d="M123.562 130.81H78.7482C77.428 130.812 76.3593 131.893 76.3607 133.226V204.689H125.955V133.226C125.956 131.892 124.885 130.81 123.564 130.81H123.562ZM101.306 171.414C98.3888 171.4 96.0276 169.017 96.014 166.072V157.829C96.014 154.879 98.3832 152.488 101.306 152.488C104.228 152.488 106.597 154.879 106.597 157.829V166.072C106.584 169.017 104.223 171.4 101.306 171.414Z" fill="#CCCCCC"/>
<path d="M76.2064 202.403V209.298C76.2079 210.042 76.8049 210.644 77.5417 210.646H124.773C125.509 210.642 126.105 210.041 126.109 209.298V202.403H76.2064Z" fill="#3F3D56"/>
<path d="M196.17 23.8105H7.80861C5.97379 23.8146 4.48844 25.3171 4.48828 27.1693V154.426C4.49142 156.275 5.97615 157.774 7.80861 157.777H196.17C198.002 157.774 199.487 156.275 199.49 154.426V27.1693C199.49 25.3171 198.004 23.8146 196.17 23.8105Z" fill="white"/>
<path d="M159.48 213.045H47.4158C46.2773 213.045 45.3544 212.113 45.3544 210.964C45.3544 210.82 45.3692 210.676 45.3986 210.535L47.1374 202.198C47.3413 201.237 48.1809 200.549 49.1544 200.546H157.742C158.715 200.549 159.555 201.237 159.759 202.198L161.498 210.535C161.732 211.66 161.019 212.763 159.905 213C159.765 213.03 159.623 213.045 159.48 213.045Z" fill="#CCCCCC"/>
<path d="M52.9723 202.047H50.3786C50.1417 202.047 49.9497 202.241 49.9497 202.48V203.704C49.9497 203.944 50.1417 204.137 50.3786 204.137H52.9723C53.2092 204.137 53.4012 203.944 53.4012 203.704V202.48C53.4012 202.241 53.2092 202.047 52.9723 202.047Z" fill="#E6E6E6"/>
<path d="M59.8754 202.047H57.2817C57.0448 202.047 56.8528 202.241 56.8528 202.48V203.704C56.8528 203.944 57.0448 204.137 57.2817 204.137H59.8754C60.1122 204.137 60.3043 203.944 60.3043 203.704V202.48C60.3043 202.241 60.1122 202.047 59.8754 202.047Z" fill="#E6E6E6"/>
<path d="M66.7788 202.047H64.1851C63.9483 202.047 63.7562 202.241 63.7562 202.48V203.704C63.7562 203.944 63.9483 204.137 64.1851 204.137H66.7788C67.0157 204.137 67.2077 203.944 67.2077 203.704V202.48C67.2077 202.241 67.0157 202.047 66.7788 202.047Z" fill="#E6E6E6"/>
<path d="M73.6822 202.047H71.0886C70.8517 202.047 70.6597 202.241 70.6597 202.48V203.704C70.6597 203.944 70.8517 204.137 71.0886 204.137H73.6822C73.9191 204.137 74.1112 203.944 74.1112 203.704V202.48C74.1112 202.241 73.9191 202.047 73.6822 202.047Z" fill="#E6E6E6"/>
<path d="M80.5849 202.047H77.9913C77.7544 202.047 77.5624 202.241 77.5624 202.48V203.704C77.5624 203.944 77.7544 204.137 77.9913 204.137H80.5849C80.8218 204.137 81.0138 203.944 81.0138 203.704V202.48C81.0138 202.241 80.8218 202.047 80.5849 202.047Z" fill="#E6E6E6"/>
<path d="M87.4879 202.047H84.8943C84.6574 202.047 84.4653 202.241 84.4653 202.48V203.704C84.4653 203.944 84.6574 204.137 84.8943 204.137H87.4879C87.7248 204.137 87.9168 203.944 87.9168 203.704V202.48C87.9168 202.241 87.7248 202.047 87.4879 202.047Z" fill="#E6E6E6"/>
<path d="M94.3905 202.047H91.7968C91.56 202.047 91.3679 202.241 91.3679 202.48V203.704C91.3679 203.944 91.56 204.137 91.7968 204.137H94.3905C94.6274 204.137 94.8194 203.944 94.8194 203.704V202.48C94.8194 202.241 94.6274 202.047 94.3905 202.047Z" fill="#E6E6E6"/>
<path d="M101.294 202.047H98.6999C98.463 202.047 98.271 202.241 98.271 202.48V203.704C98.271 203.944 98.463 204.137 98.6999 204.137H101.294C101.53 204.137 101.722 203.944 101.722 203.704V202.48C101.722 202.241 101.53 202.047 101.294 202.047Z" fill="#E6E6E6"/>
<path d="M108.197 202.047H105.603C105.366 202.047 105.174 202.241 105.174 202.48V203.704C105.174 203.944 105.366 204.137 105.603 204.137H108.197C108.434 204.137 108.626 203.944 108.626 203.704V202.48C108.626 202.241 108.434 202.047 108.197 202.047Z" fill="#E6E6E6"/>
<path d="M115.099 202.047H112.506C112.269 202.047 112.077 202.241 112.077 202.48V203.704C112.077 203.944 112.269 204.137 112.506 204.137H115.099C115.336 204.137 115.528 203.944 115.528 203.704V202.48C115.528 202.241 115.336 202.047 115.099 202.047Z" fill="#E6E6E6"/>
<path d="M122.002 202.047H119.409C119.172 202.047 118.98 202.241 118.98 202.48V203.704C118.98 203.944 119.172 204.137 119.409 204.137H122.002C122.239 204.137 122.431 203.944 122.431 203.704V202.48C122.431 202.241 122.239 202.047 122.002 202.047Z" fill="#E6E6E6"/>
<path d="M128.906 202.047H126.312C126.075 202.047 125.883 202.241 125.883 202.48V203.704C125.883 203.944 126.075 204.137 126.312 204.137H128.906C129.143 204.137 129.335 203.944 129.335 203.704V202.48C129.335 202.241 129.143 202.047 128.906 202.047Z" fill="#E6E6E6"/>
<path d="M135.808 202.047H133.215C132.978 202.047 132.786 202.241 132.786 202.48V203.704C132.786 203.944 132.978 204.137 133.215 204.137H135.808C136.045 204.137 136.237 203.944 136.237 203.704V202.48C136.237 202.241 136.045 202.047 135.808 202.047Z" fill="#E6E6E6"/>
<path d="M142.711 202.047H140.117C139.88 202.047 139.688 202.241 139.688 202.48V203.704C139.688 203.944 139.88 204.137 140.117 204.137H142.711C142.948 204.137 143.14 203.944 143.14 203.704V202.48C143.14 202.241 142.948 202.047 142.711 202.047Z" fill="#E6E6E6"/>
<path d="M149.614 202.047H147.021C146.784 202.047 146.592 202.241 146.592 202.48V203.704C146.592 203.944 146.784 204.137 147.021 204.137H149.614C149.851 204.137 150.043 203.944 150.043 203.704V202.48C150.043 202.241 149.851 202.047 149.614 202.047Z" fill="#E6E6E6"/>
<path d="M156.517 202.047H153.924C153.687 202.047 153.495 202.241 153.495 202.48V203.704C153.495 203.944 153.687 204.137 153.924 204.137H156.517C156.754 204.137 156.946 203.944 156.946 203.704V202.48C156.946 202.241 156.754 202.047 156.517 202.047Z" fill="#E6E6E6"/>
<path d="M52.891 205.531H50.2973C50.0604 205.531 49.8684 205.725 49.8684 205.964V207.189C49.8684 207.428 50.0604 207.622 50.2973 207.622H52.891C53.1278 207.622 53.3199 207.428 53.3199 207.189V205.964C53.3199 205.725 53.1278 205.531 52.891 205.531Z" fill="#E6E6E6"/>
<path d="M59.7944 205.531H57.2008C56.9639 205.531 56.7719 205.725 56.7719 205.964V207.189C56.7719 207.428 56.9639 207.622 57.2008 207.622H59.7944C60.0313 207.622 60.2233 207.428 60.2233 207.189V205.964C60.2233 205.725 60.0313 205.531 59.7944 205.531Z" fill="#E6E6E6"/>
<path d="M66.6978 205.531H64.1042C63.8673 205.531 63.6753 205.725 63.6753 205.964V207.189C63.6753 207.428 63.8673 207.622 64.1042 207.622H66.6978C66.9347 207.622 67.1268 207.428 67.1268 207.189V205.964C67.1268 205.725 66.9347 205.531 66.6978 205.531Z" fill="#E6E6E6"/>
<path d="M73.6001 205.531H71.0064C70.7696 205.531 70.5775 205.725 70.5775 205.964V207.189C70.5775 207.428 70.7696 207.622 71.0064 207.622H73.6001C73.837 207.622 74.029 207.428 74.029 207.189V205.964C74.029 205.725 73.837 205.531 73.6001 205.531Z" fill="#E6E6E6"/>
<path d="M80.503 205.531H77.9094C77.6725 205.531 77.4805 205.725 77.4805 205.964V207.189C77.4805 207.428 77.6725 207.622 77.9094 207.622H80.503C80.7399 207.622 80.9319 207.428 80.9319 207.189V205.964C80.9319 205.725 80.7399 205.531 80.503 205.531Z" fill="#E6E6E6"/>
<path d="M87.4058 205.531H84.8121C84.5752 205.531 84.3832 205.725 84.3832 205.964V207.189C84.3832 207.428 84.5752 207.622 84.8121 207.622H87.4058C87.6426 207.622 87.8347 207.428 87.8347 207.189V205.964C87.8347 205.725 87.6426 205.531 87.4058 205.531Z" fill="#E6E6E6"/>
<path d="M94.3087 205.531H91.7151C91.4782 205.531 91.2861 205.725 91.2861 205.964V207.189C91.2861 207.428 91.4782 207.622 91.7151 207.622H94.3087C94.5456 207.622 94.7376 207.428 94.7376 207.189V205.964C94.7376 205.725 94.5456 205.531 94.3087 205.531Z" fill="#E6E6E6"/>
<path d="M101.211 205.531H98.6176C98.3808 205.531 98.1887 205.725 98.1887 205.964V207.189C98.1887 207.428 98.3808 207.622 98.6176 207.622H101.211C101.448 207.622 101.64 207.428 101.64 207.189V205.964C101.64 205.725 101.448 205.531 101.211 205.531Z" fill="#E6E6E6"/>
<path d="M108.114 205.531H105.521C105.284 205.531 105.092 205.725 105.092 205.964V207.189C105.092 207.428 105.284 207.622 105.521 207.622H108.114C108.351 207.622 108.543 207.428 108.543 207.189V205.964C108.543 205.725 108.351 205.531 108.114 205.531Z" fill="#E6E6E6"/>
<path d="M115.018 205.531H112.425C112.188 205.531 111.996 205.725 111.996 205.964V207.189C111.996 207.428 112.188 207.622 112.425 207.622H115.018C115.255 207.622 115.447 207.428 115.447 207.189V205.964C115.447 205.725 115.255 205.531 115.018 205.531Z" fill="#E6E6E6"/>
<path d="M121.921 205.531H119.328C119.091 205.531 118.899 205.725 118.899 205.964V207.189C118.899 207.428 119.091 207.622 119.328 207.622H121.921C122.158 207.622 122.35 207.428 122.35 207.189V205.964C122.35 205.725 122.158 205.531 121.921 205.531Z" fill="#E6E6E6"/>
<path d="M128.824 205.531H126.23C125.993 205.531 125.801 205.725 125.801 205.964V207.189C125.801 207.428 125.993 207.622 126.23 207.622H128.824C129.061 207.622 129.253 207.428 129.253 207.189V205.964C129.253 205.725 129.061 205.531 128.824 205.531Z" fill="#E6E6E6"/>
<path d="M135.727 205.531H133.133C132.896 205.531 132.704 205.725 132.704 205.964V207.189C132.704 207.428 132.896 207.622 133.133 207.622H135.727C135.963 207.622 136.155 207.428 136.155 207.189V205.964C136.155 205.725 135.963 205.531 135.727 205.531Z" fill="#E6E6E6"/>
<path d="M142.63 205.531H140.036C139.799 205.531 139.607 205.725 139.607 205.964V207.189C139.607 207.428 139.799 207.622 140.036 207.622H142.63C142.866 207.622 143.059 207.428 143.059 207.189V205.964C143.059 205.725 142.866 205.531 142.63 205.531Z" fill="#E6E6E6"/>
<path d="M149.533 205.531H146.939C146.702 205.531 146.51 205.725 146.51 205.964V207.189C146.51 207.428 146.702 207.622 146.939 207.622H149.533C149.769 207.622 149.961 207.428 149.961 207.189V205.964C149.961 205.725 149.769 205.531 149.533 205.531Z" fill="#E6E6E6"/>
<path d="M156.436 205.531H153.842C153.605 205.531 153.413 205.725 153.413 205.964V207.189C153.413 207.428 153.605 207.622 153.842 207.622H156.436C156.673 207.622 156.865 207.428 156.865 207.189V205.964C156.865 205.725 156.673 205.531 156.436 205.531Z" fill="#E6E6E6"/>
<path d="M186.702 41.3428H10.453C10.0659 41.3342 9.75898 41.0105 9.76751 40.6197C9.77574 40.2411 10.0779 39.9361 10.453 39.9277H186.702C187.089 39.9363 187.396 40.2601 187.387 40.6508C187.379 41.0295 187.077 41.3345 186.702 41.3428Z" fill="#CACACA"/>
<path d="M50.8298 36.3157C53.0984 36.3157 54.9374 34.4178 54.9374 32.0768C54.9374 29.7357 53.0984 27.8379 50.8298 27.8379C48.5613 27.8379 46.7223 29.7357 46.7223 32.0768C46.7223 34.4178 48.5613 36.3157 50.8298 36.3157Z" fill="#CCCCCC"/>
<path d="M98.3967 52.0718L97.8274 50.3929L170.626 12.209L171.195 13.8879L98.3967 52.0718Z" fill="#3F3D56"/>
<path d="M306.283 122.396L305.753 120.744L346.518 83.3711L347.047 85.0219L306.283 122.396Z" fill="#3F3D56"/>
<path d="M264.1 104.657L224.922 33.9539L226.16 32.8164L265.337 103.52L264.1 104.657Z" fill="#3F3D56"/>
<path d="M294.331 13.3034L255.673 13.0418V10.6426L294.331 10.9041V13.3034Z" fill="#3F3D56"/>
<path d="M362.996 23.9468H320.556C314.807 23.9468 310.146 18.7846 310.146 12.4168C310.146 6.04889 314.807 0.886719 320.556 0.886719H362.996C368.745 0.886719 373.405 6.04889 373.405 12.4168C373.405 18.7846 368.745 23.9468 362.996 23.9468Z" fill="#97B8D7"/>
<path d="M416.59 91.353H374.15C368.401 91.353 363.741 86.1909 363.741 79.823C363.741 73.4552 368.401 68.293 374.15 68.293H416.59C422.339 68.293 427 73.4552 427 79.823C427 86.1909 422.339 91.353 416.59 91.353Z" fill="#CBDCEB"/>
<path d="M347.046 139.248L309.267 138.987V136.587L347.046 136.847V139.248Z" fill="#3F3D56"/>
<path d="M416.59 149.89H374.15C368.401 149.89 363.741 144.728 363.741 138.36C363.741 131.992 368.401 126.83 374.15 126.83H416.59C422.339 126.83 427 131.992 427 138.36C427 144.728 422.339 149.89 416.59 149.89Z" fill="#97B8D7"/>
<path d="M291.684 141.908H248.655C242.826 141.908 238.101 136.746 238.101 130.378C238.101 124.01 242.826 118.848 248.655 118.848H291.684C297.513 118.848 302.239 124.01 302.239 130.378C302.239 136.746 297.513 141.908 291.684 141.908Z" fill="#BAD0E4"/>
<path d="M233.697 23.0601H190.667C184.838 23.0601 180.113 17.8979 180.113 11.53C180.113 5.16217 184.838 0 190.667 0H233.697C239.526 0 244.251 5.16217 244.251 11.53C244.251 17.8979 239.526 23.0601 233.697 23.0601Z" fill="#A8C4DE"/>
<path d="M65.3331 34.5535C65.2478 34.5535 65.1626 34.5202 65.0983 34.4538L63.2236 32.5192C63.0986 32.3903 63.0986 32.1843 63.2236 32.0554L65.0983 30.1211C65.2255 29.9902 65.4337 29.9881 65.5628 30.1159C65.6926 30.244 65.6949 30.454 65.568 30.5849L63.9181 32.2873L65.568 33.99C65.6949 34.1208 65.6926 34.3309 65.5628 34.459C65.499 34.5221 65.4161 34.5535 65.3331 34.5535Z" fill="#CCCCCC"/>
<path d="M68.4837 34.5528C68.4008 34.5528 68.3178 34.5214 68.254 34.4582C68.1242 34.3301 68.122 34.1203 68.2489 33.9892L69.8986 32.2866L68.2489 30.5841C68.122 30.4533 68.1242 30.2433 68.254 30.1152C68.3835 29.9869 68.5917 29.9893 68.7186 30.1203L70.5931 32.0547C70.718 32.1836 70.718 32.3896 70.5931 32.5185L68.7186 34.453C68.6543 34.5194 68.5691 34.5528 68.4837 34.5528Z" fill="#CCCCCC"/>
<path d="M166.555 29.752H163.069C162.672 29.752 162.35 30.077 162.35 30.4783V34.0004C162.35 34.4017 162.672 34.7267 163.069 34.7267H166.555C166.953 34.7267 167.278 34.4017 167.278 34.0004V30.4783C167.278 30.077 166.953 29.752 166.555 29.752Z" fill="#CCCCCC"/>
<path d="M158.014 29.752H154.528C154.13 29.752 153.808 30.077 153.808 30.4783V34.0004C153.808 34.4017 154.13 34.7267 154.528 34.7267H158.014C158.411 34.7267 158.736 34.4017 158.736 34.0004V30.4783C158.736 30.077 158.411 29.752 158.014 29.752Z" fill="#CCCCCC"/>
<path d="M174.604 29.918H171.119C170.721 29.918 170.399 30.243 170.399 30.6443V34.1664C170.399 34.5677 170.721 34.8928 171.119 34.8928H174.604C175.002 34.8928 175.327 34.5677 175.327 34.1664V30.6443C175.327 30.243 175.002 29.918 174.604 29.918Z" fill="#CCCCCC"/>
<path d="M122.064 31.2578H94.2003C93.7141 31.2578 93.3231 31.6558 93.3231 32.1433C93.3231 32.6309 93.7141 33.0288 94.2003 33.0288H122.064C122.547 33.0288 122.941 32.6309 122.941 32.1433C122.941 31.6558 122.547 31.2578 122.064 31.2578Z" fill="#CCCCCC"/>
<path d="M59.5902 71.8408H20.2071C18.8097 71.8424 17.4701 72.3929 16.482 73.3715C15.4939 74.3502 14.9381 75.6771 14.9365 77.0611V97.7706C14.9381 99.1546 15.4939 100.481 16.482 101.46C17.4701 102.439 18.8097 102.989 20.2071 102.991H59.5902C60.9875 102.989 62.3272 102.439 63.3153 101.46C64.3033 100.481 64.8591 99.1546 64.8607 97.7706V77.0611C64.8591 75.6771 64.3033 74.3502 63.3153 73.3715C62.3272 72.3929 60.9875 71.8424 59.5902 71.8408Z" fill="#E6E6E6"/>
<path d="M20.2066 76.0889C19.9463 76.0891 19.6967 76.1917 19.5126 76.374C19.3285 76.5563 19.225 76.8035 19.2247 77.0613V97.7709C19.225 98.0288 19.3285 98.276 19.5126 98.4583C19.6967 98.6406 19.9463 98.7432 20.2066 98.7434H59.5898C59.8501 98.7432 60.0997 98.6406 60.2838 98.4583C60.4678 98.276 60.5714 98.0288 60.5716 97.7709V77.0613C60.5714 76.8035 60.4678 76.5563 60.2838 76.374C60.0997 76.1917 59.8501 76.0891 59.5898 76.0889H20.2066Z" fill="white"/>
<path d="M39.1016 96.5597C39.0882 96.5597 39.0747 96.5593 39.0611 96.5586C38.9002 96.5496 38.7471 96.4866 38.6271 96.38C38.5071 96.2734 38.4273 96.1295 38.4008 95.972L36.1215 82.4264L34.1089 90.3998C34.0705 90.552 33.9819 90.6871 33.857 90.7836C33.7322 90.8801 33.5784 90.9326 33.42 90.9326H30.5793C30.391 90.9326 30.2103 90.8585 30.0771 90.7266C29.944 90.5946 29.8691 90.4157 29.8691 90.2292C29.8691 90.0426 29.944 89.8637 30.0771 89.7318C30.2103 89.5999 30.391 89.5258 30.5793 89.5258H32.8655L35.5717 78.8043C35.6113 78.6475 35.7042 78.5089 35.8348 78.4119C35.9655 78.315 36.1259 78.2656 36.289 78.272C36.4521 78.2785 36.608 78.3404 36.7304 78.4474C36.8528 78.5543 36.9343 78.6998 36.9611 78.8593L39.2839 92.6629L41.2591 85.8156C41.3008 85.6711 41.3881 85.5437 41.5082 85.4519C41.6283 85.3601 41.7749 85.3089 41.9265 85.3056C42.0782 85.3023 42.2269 85.3473 42.3509 85.4338C42.4749 85.5203 42.5677 85.6439 42.6157 85.7864L43.8742 89.5258H46.203C46.3913 89.5258 46.5719 89.5999 46.7051 89.7318C46.8383 89.8637 46.9131 90.0426 46.9131 90.2292C46.9131 90.4157 46.8383 90.5946 46.7051 90.7266C46.5719 90.8585 46.3913 90.9326 46.203 90.9326H43.3623C43.2133 90.9326 43.068 90.8861 42.9471 90.7998C42.8262 90.7135 42.7357 90.5917 42.6886 90.4516L41.9942 88.3883L39.7841 96.0496C39.7418 96.1965 39.6522 96.3257 39.5291 96.4178C39.4059 96.5098 39.2559 96.5596 39.1016 96.5597Z" fill="#97B8D7"/>
<path d="M47.8385 92.3098C48.9924 92.3098 49.9279 91.3832 49.9279 90.2403C49.9279 89.0974 48.9924 88.1709 47.8385 88.1709C46.6846 88.1709 45.7491 89.0974 45.7491 90.2403C45.7491 91.3832 46.6846 92.3098 47.8385 92.3098Z" fill="#3F3D56"/>
<path d="M120.731 71.8408H81.3476C79.9502 71.8424 78.6105 72.3929 77.6225 73.3715C76.6344 74.3502 76.0786 75.6771 76.077 77.0611V97.7706C76.0786 99.1546 76.6344 100.481 77.6225 101.46C78.6105 102.439 79.9502 102.989 81.3476 102.991H120.731C122.128 102.989 123.468 102.439 124.456 101.46C125.444 100.481 126 99.1546 126.001 97.7706V77.0611C126 75.6771 125.444 74.3502 124.456 73.3715C123.468 72.3929 122.128 71.8424 120.731 71.8408Z" fill="#E6E6E6"/>
<path d="M81.3476 76.0889C81.0873 76.0891 80.8377 76.1917 80.6536 76.374C80.4695 76.5563 80.366 76.8035 80.3657 77.0613V97.7709C80.366 98.0288 80.4695 98.276 80.6536 98.4583C80.8377 98.6406 81.0873 98.7432 81.3476 98.7434H120.731C120.991 98.7432 121.241 98.6406 121.425 98.4583C121.609 98.276 121.712 98.0288 121.713 97.7709V77.0613C121.712 76.8035 121.609 76.5563 121.425 76.374C121.241 76.1917 120.991 76.0891 120.731 76.0889H81.3476Z" fill="white"/>
<path d="M101.039 88.5309C103.908 88.5309 106.234 86.2273 106.234 83.3856C106.234 80.5439 103.908 78.2402 101.039 78.2402C98.1696 78.2402 95.8438 80.5439 95.8438 83.3856C95.8438 86.2273 98.1696 88.5309 101.039 88.5309Z" fill="#FABB84"/>
<path d="M101.038 89.3877C102.875 89.3877 104.637 90.1105 105.936 91.3971C107.235 92.6837 107.965 94.4287 107.965 96.2482V96.5912H94.1118V96.2482C94.1118 94.4287 94.8416 92.6837 96.1405 91.3971C97.4395 90.1105 99.2013 89.3877 101.038 89.3877Z" fill="#FABB84"/>
<path d="M90.4758 91.1029C92.4841 91.1029 94.1122 89.4903 94.1122 87.5012C94.1122 85.512 92.4841 83.8994 90.4758 83.8994C88.4674 83.8994 86.8394 85.512 86.8394 87.5012C86.8394 89.4903 88.4674 91.1029 90.4758 91.1029Z" fill="#3F3D56"/>
<path d="M94.0374 92.7578C93.3385 92.1439 92.4754 91.7432 91.552 91.6037C90.6286 91.4642 89.6841 91.592 88.8323 91.9716C87.9804 92.3512 87.2575 92.9665 86.7503 93.7435C86.2432 94.5204 85.9735 95.426 85.9738 96.3512V96.5913H93.0735V96.2483C93.0719 95.0201 93.4049 93.8142 94.0374 92.7578Z" fill="#3F3D56"/>
<path d="M111.602 91.1029C113.61 91.1029 115.238 89.4903 115.238 87.5012C115.238 85.512 113.61 83.8994 111.602 83.8994C109.594 83.8994 107.965 85.512 107.965 87.5012C107.965 89.4903 109.594 91.1029 111.602 91.1029Z" fill="#3F3D56"/>
<path d="M108.041 92.7578C108.739 92.1439 109.602 91.7432 110.526 91.6037C111.449 91.4642 112.394 91.592 113.246 91.9716C114.097 92.3512 114.82 92.9665 115.328 93.7435C115.835 94.5204 116.104 95.426 116.104 96.3512V96.5913H109.004V96.2483C109.006 95.0201 108.673 93.8142 108.041 92.7578Z" fill="#3F3D56"/>
<path d="M181.871 71.8408H142.488C141.091 71.8424 139.751 72.3929 138.763 73.3715C137.775 74.3502 137.219 75.6771 137.218 77.0611V97.7706C137.219 99.1546 137.775 100.481 138.763 101.46C139.751 102.439 141.091 102.989 142.488 102.991H181.871C183.269 102.989 184.608 102.439 185.596 101.46C186.584 100.481 187.14 99.1546 187.142 97.7706V77.0611C187.14 75.6771 186.584 74.3502 185.596 73.3715C184.608 72.3929 183.269 71.8424 181.871 71.8408Z" fill="#E6E6E6"/>
<path d="M142.488 76.0889C142.228 76.0891 141.979 76.1917 141.794 76.374C141.61 76.5563 141.507 76.8035 141.507 77.0613V97.7709C141.507 98.0288 141.61 98.276 141.794 98.4583C141.979 98.6406 142.228 98.7432 142.488 98.7434H181.872C182.132 98.7432 182.382 98.6406 182.566 98.4583C182.75 98.276 182.853 98.0288 182.854 97.7709V77.0613C182.853 76.8035 182.75 76.5563 182.566 76.374C182.382 76.1917 182.132 76.0891 181.872 76.0889H142.488Z" fill="white"/>
<path d="M161.52 96.9926C161.435 96.9926 161.351 96.9761 161.273 96.9441C161.195 96.912 161.124 96.8649 161.064 96.8057C161.004 96.7464 160.957 96.676 160.924 96.5985C160.892 96.5211 160.875 96.438 160.875 96.3542V91.2466C160.876 91.0775 160.944 90.9154 161.065 90.7959C161.185 90.6765 161.349 90.6094 161.52 90.6094C161.691 90.6094 161.854 90.6765 161.975 90.7959C162.096 90.9154 162.164 91.0775 162.165 91.2466V96.3542C162.165 96.438 162.148 96.5211 162.115 96.5985C162.083 96.676 162.036 96.7464 161.976 96.8057C161.916 96.8649 161.845 96.912 161.767 96.9441C161.688 96.9761 161.605 96.9926 161.52 96.9926Z" fill="#EE6A76"/>
<path d="M163.776 94.439H159.264C159.093 94.439 158.929 94.3717 158.808 94.252C158.687 94.1323 158.619 93.9699 158.619 93.8005C158.619 93.6312 158.687 93.4688 158.808 93.3491C158.929 93.2294 159.093 93.1621 159.264 93.1621H163.776C163.947 93.1621 164.111 93.2294 164.232 93.3491C164.353 93.4688 164.421 93.6312 164.421 93.8005C164.421 93.9699 164.353 94.1323 164.232 94.252C164.111 94.3717 163.947 94.439 163.776 94.439Z" fill="#EE6A76"/>
<path d="M170.223 82.308C170.138 82.308 170.054 82.2915 169.976 82.2594C169.898 82.2273 169.827 82.1803 169.767 82.121C169.707 82.0617 169.659 81.9913 169.627 81.9139C169.595 81.8364 169.578 81.7534 169.578 81.6695V79.1158H167C166.915 79.1158 166.831 79.0992 166.753 79.0672C166.675 79.0351 166.604 78.988 166.544 78.9288C166.484 78.8695 166.436 78.7991 166.404 78.7216C166.372 78.6442 166.355 78.5612 166.355 78.4773C166.355 78.3935 166.372 78.3104 166.404 78.233C166.436 78.1555 166.484 78.0851 166.544 78.0259C166.604 77.9666 166.675 77.9196 166.753 77.8875C166.831 77.8554 166.915 77.8389 167 77.8389H170.223C170.307 77.8389 170.391 77.8554 170.469 77.8875C170.547 77.9195 170.618 77.9666 170.678 78.0259C170.738 78.0851 170.786 78.1555 170.818 78.233C170.85 78.3105 170.867 78.3935 170.867 78.4773V81.6695C170.867 81.7534 170.85 81.8364 170.818 81.9139C170.786 81.9913 170.738 82.0617 170.678 82.121C170.618 82.1803 170.547 82.2273 170.469 82.2594C170.391 82.2915 170.307 82.308 170.223 82.308Z" fill="#EE6A76"/>
<path d="M166.326 82.9756C166.198 82.9756 166.073 82.9381 165.967 82.868C165.861 82.7978 165.779 82.6981 165.73 82.5814C165.681 82.4648 165.669 82.3364 165.693 82.2125C165.718 82.0887 165.78 81.9749 165.87 81.8857L169.766 78.0262C169.887 77.9068 170.051 77.8397 170.222 77.8398C170.393 77.84 170.557 77.9072 170.677 78.0269C170.798 78.1465 170.866 78.3087 170.866 78.4779C170.866 78.6471 170.799 78.8094 170.678 78.9292L166.781 82.7886C166.722 82.8479 166.651 82.895 166.572 82.9271C166.494 82.9592 166.41 82.9757 166.326 82.9756Z" fill="#EE6A76"/>
<path d="M161.52 91.2467C160.309 91.2467 159.125 90.891 158.118 90.2245C157.111 89.558 156.326 88.6108 155.863 87.5025C155.399 86.3942 155.278 85.1747 155.514 83.9982C155.751 82.8216 156.334 81.7409 157.19 80.8927C158.047 80.0444 159.138 79.4668 160.326 79.2328C161.514 78.9987 162.745 79.1188 163.864 79.5779C164.983 80.037 165.939 80.8144 166.612 81.8118C167.285 82.8092 167.644 83.9819 167.644 85.1814C167.642 86.7895 166.996 88.3311 165.848 89.4682C164.7 90.6053 163.144 91.2449 161.52 91.2467ZM161.52 80.3931C160.564 80.3931 159.63 80.6739 158.834 81.2001C158.039 81.7262 157.42 82.4741 157.054 83.349C156.688 84.224 156.592 85.1868 156.779 86.1156C156.965 87.0445 157.426 87.8977 158.102 88.5673C158.778 89.237 159.639 89.693 160.577 89.8778C161.515 90.0625 162.487 89.9677 163.37 89.6053C164.254 89.2429 165.009 88.6291 165.54 87.8417C166.071 87.0543 166.355 86.1285 166.355 85.1814C166.353 83.9119 165.844 82.6948 164.937 81.7972C164.031 80.8995 162.802 80.3945 161.52 80.3931Z" fill="#3F3D56"/>
<line y1="-1" x2="68.8338" y2="-1" transform="matrix(0.882554 0.47021 -0.468037 0.883709 171.327 93.7959)" stroke="#3F3D56" stroke-width="2"/>
<line x1="43.0511" y1="114.326" x2="152.876" y2="114.326" stroke="#E6E6E6" stroke-width="3"/>
<line x1="47.4442" y1="122.257" x2="146.726" y2="122.257" stroke="#E6E6E6" stroke-width="3"/>
<line x1="48.3231" y1="138.119" x2="147.605" y2="138.119" stroke="#E6E6E6" stroke-width="3"/>
<line x1="44.8088" y1="130.188" x2="152.877" y2="130.188" stroke="#E6E6E6" stroke-width="3"/>
</svg>
