<svg width="395" height="325" viewBox="0 0 395 325" fill="none" xmlns="http://www.w3.org/2000/svg">
<path d="M169.105 99.1463L252.842 38.6585L358 132.317L192.474 194.756L302.5 234.756L121.395 305L135.026 105L163.263 174.268L226.553 37.6829L315.158 217.195L122.06 295.244L354.105 112.805L192.474 174.268L147.684 112.805L25 137.195L154.5 185.976L99 289.39L40.5789 115.732L218.763 25" stroke="black"/>
<path d="M24 94C19.2533 94 14.6131 95.3489 10.6663 97.8762C6.71956 100.403 3.64338 103.996 1.82688 108.198C0.0103784 112.401 -0.464874 117.026 0.461171 121.487C1.38722 125.949 3.673 130.047 7.02946 133.263C10.3859 136.48 14.6623 138.671 19.3178 139.558C23.9734 140.446 28.799 139.99 33.1844 138.249C37.5698 136.508 41.3181 133.56 43.9553 129.778C46.5924 125.996 48 121.549 48 117C47.9814 110.906 45.4468 105.066 40.95 100.756C36.4532 96.4468 30.3595 94.0178 24 94ZM24 100.9C25.424 100.9 26.8161 101.305 28.0001 102.063C29.1842 102.821 30.107 103.899 30.6519 105.159C31.1969 106.42 31.3395 107.808 31.0616 109.146C30.7838 110.485 30.0981 111.714 29.0912 112.679C28.0842 113.644 26.8013 114.301 25.4046 114.567C24.008 114.834 22.5603 114.697 21.2447 114.175C19.929 113.653 18.8046 112.768 18.0134 111.633C17.2223 110.499 16.8 109.165 16.8 107.8C16.8064 105.972 17.567 104.22 18.9159 102.928C20.2647 101.635 22.0924 100.906 24 100.9ZM24 134.117C21.1557 134.105 18.3576 133.428 15.8482 132.144C13.3389 130.861 11.1941 129.01 9.6 126.753C9.71539 122.153 19.2 119.621 24 119.621C28.8 119.621 38.2846 122.153 38.4 126.753C36.8041 129.009 34.6589 130.858 32.15 132.141C29.6411 133.424 26.8438 134.102 24 134.117Z" fill="#FABB84"/>
<path d="M151 70C146.055 70 141.222 71.3782 137.111 73.9605C133 76.5427 129.795 80.2129 127.903 84.5069C126.011 88.801 125.516 93.5261 126.48 98.0846C127.445 102.643 129.826 106.83 133.322 110.117C136.819 113.404 141.273 115.642 146.123 116.548C150.972 117.455 155.999 116.99 160.567 115.211C165.135 113.433 169.04 110.42 171.787 106.556C174.534 102.691 176 98.1479 176 93.5C175.981 87.273 173.34 81.3063 168.656 76.9031C163.972 72.5 157.624 70.0182 151 70ZM151 77.05C152.483 77.05 153.933 77.4635 155.167 78.2381C156.4 79.0128 157.361 80.1139 157.929 81.4021C158.497 82.6903 158.645 84.1078 158.356 85.4754C158.066 86.843 157.352 88.0991 156.303 89.0851C155.254 90.0711 153.918 90.7425 152.463 91.0145C151.008 91.2866 149.5 91.1469 148.13 90.6133C146.759 90.0797 145.588 89.1761 144.764 88.0168C143.94 86.8574 143.5 85.4944 143.5 84.1C143.507 82.2321 144.299 80.4426 145.704 79.1218C147.109 77.801 149.013 77.0562 151 77.05ZM151 110.989C148.037 110.977 145.122 110.285 142.509 108.974C139.895 107.662 137.661 105.771 136 103.465C136.12 98.7649 146 96.1776 151 96.1776C156 96.1776 165.88 98.7649 166 103.465C164.338 105.77 162.103 107.659 159.49 108.97C156.876 110.281 153.962 110.974 151 110.989Z" fill="#FABB84"/>
<path d="M240 0C235.055 0 230.222 1.37825 226.111 3.96046C222 6.54267 218.795 10.2129 216.903 14.5069C215.011 18.801 214.516 23.5261 215.48 28.0846C216.445 32.6432 218.826 36.8305 222.322 40.117C225.819 43.4035 230.273 45.6417 235.123 46.5484C239.972 47.4552 244.999 46.9898 249.567 45.2112C254.135 43.4325 258.04 40.4204 260.787 36.5559C263.534 32.6913 265 28.1479 265 23.5C264.981 17.273 262.34 11.3063 257.656 6.90312C252.972 2.49996 246.624 0.0182271 240 0ZM240 7.05C241.483 7.05 242.933 7.46348 244.167 8.23814C245.4 9.0128 246.361 10.1139 246.929 11.4021C247.497 12.6903 247.645 14.1078 247.356 15.4754C247.066 16.843 246.352 18.0991 245.303 19.0851C244.254 20.0711 242.918 20.7425 241.463 21.0145C240.008 21.2866 238.5 21.1469 237.13 20.6133C235.759 20.0797 234.588 19.1761 233.764 18.0168C232.94 16.8574 232.5 15.4944 232.5 14.1C232.507 12.2321 233.299 10.4426 234.704 9.12179C236.109 7.80101 238.013 7.05623 240 7.05ZM240 40.9894C237.037 40.9767 234.122 40.2847 231.509 38.9735C228.895 37.6623 226.661 35.7714 225 33.4649C225.12 28.7649 235 26.1776 240 26.1776C245 26.1776 254.88 28.7649 255 33.4649C253.338 35.7697 251.103 37.6592 248.49 38.9702C245.876 40.2812 242.962 40.9743 240 40.9894Z" fill="#FABB84"/>
<path d="M371 94C366.253 94 361.613 95.3489 357.666 97.8762C353.72 100.403 350.643 103.996 348.827 108.198C347.01 112.401 346.535 117.026 347.461 121.487C348.387 125.949 350.673 130.047 354.029 133.263C357.386 136.48 361.662 138.671 366.318 139.558C370.973 140.446 375.799 139.99 380.184 138.249C384.57 136.508 388.318 133.56 390.955 129.778C393.592 125.996 395 121.549 395 117C394.981 110.906 392.447 105.066 387.95 100.756C383.453 96.4468 377.359 94.0178 371 94ZM371 100.9C372.424 100.9 373.816 101.305 375 102.063C376.184 102.821 377.107 103.899 377.652 105.159C378.197 106.42 378.339 107.808 378.062 109.146C377.784 110.485 377.098 111.714 376.091 112.679C375.084 113.644 373.801 114.301 372.405 114.567C371.008 114.834 369.56 114.697 368.245 114.175C366.929 113.653 365.805 112.768 365.013 111.633C364.222 110.499 363.8 109.165 363.8 107.8C363.806 105.972 364.567 104.22 365.916 102.928C367.265 101.635 369.092 100.906 371 100.9ZM371 134.117C368.156 134.105 365.358 133.428 362.848 132.144C360.339 130.861 358.194 129.01 356.6 126.753C356.715 122.153 366.2 119.621 371 119.621C375.8 119.621 385.285 122.153 385.4 126.753C383.804 129.009 381.659 130.858 379.15 132.141C376.641 133.424 373.844 134.102 371 134.117Z" fill="#FABB84"/>
<path d="M176.5 165C171.654 165 166.918 166.378 162.889 168.96C158.86 171.543 155.719 175.213 153.865 179.507C152.011 183.801 151.525 188.526 152.471 193.085C153.416 197.643 155.75 201.83 159.176 205.117C162.602 208.404 166.968 210.642 171.72 211.548C176.473 212.455 181.399 211.99 185.876 210.211C190.353 208.433 194.179 205.42 196.871 201.556C199.563 197.691 201 193.148 201 188.5C200.981 182.273 198.394 176.306 193.803 171.903C189.213 167.5 182.992 165.018 176.5 165ZM176.5 172.05C177.954 172.05 179.375 172.463 180.583 173.238C181.792 174.013 182.734 175.114 183.291 176.402C183.847 177.69 183.992 179.108 183.709 180.475C183.425 181.843 182.725 183.099 181.697 184.085C180.669 185.071 179.36 185.743 177.934 186.015C176.508 186.287 175.03 186.147 173.687 185.613C172.344 185.08 171.196 184.176 170.389 183.017C169.581 181.857 169.15 180.494 169.15 179.1C169.157 177.232 169.933 175.443 171.31 174.122C172.687 172.801 174.553 172.056 176.5 172.05ZM176.5 205.989C173.596 205.977 170.74 205.285 168.178 203.974C165.617 202.662 163.427 200.771 161.8 198.465C161.918 193.765 171.6 191.178 176.5 191.178C181.4 191.178 191.082 193.765 191.2 198.465C189.571 200.77 187.381 202.659 184.82 203.97C182.259 205.281 179.403 205.974 176.5 205.989Z" fill="#FABB84"/>
<path d="M322 212C317.055 212 312.222 213.378 308.111 215.96C304 218.543 300.795 222.213 298.903 226.507C297.011 230.801 296.516 235.526 297.48 240.085C298.445 244.643 300.826 248.83 304.322 252.117C307.819 255.404 312.273 257.642 317.123 258.548C321.972 259.455 326.999 258.99 331.567 257.211C336.135 255.433 340.04 252.42 342.787 248.556C345.534 244.691 347 240.148 347 235.5C346.981 229.273 344.34 223.306 339.656 218.903C334.972 214.5 328.624 212.018 322 212ZM322 219.05C323.483 219.05 324.933 219.463 326.167 220.238C327.4 221.013 328.361 222.114 328.929 223.402C329.497 224.69 329.645 226.108 329.356 227.475C329.066 228.843 328.352 230.099 327.303 231.085C326.254 232.071 324.918 232.743 323.463 233.015C322.008 233.287 320.5 233.147 319.13 232.613C317.759 232.08 316.588 231.176 315.764 230.017C314.94 228.857 314.5 227.494 314.5 226.1C314.507 224.232 315.299 222.443 316.704 221.122C318.109 219.801 320.013 219.056 322 219.05ZM322 252.989C319.037 252.977 316.122 252.285 313.509 250.974C310.895 249.662 308.661 247.771 307 245.465C307.12 240.765 317 238.178 322 238.178C327 238.178 336.88 240.765 337 245.465C335.338 247.77 333.103 249.659 330.49 250.97C327.876 252.281 324.962 252.974 322 252.989Z" fill="#FABB84"/>
<path d="M112 278C107.253 278 102.613 279.378 98.6663 281.96C94.7196 284.543 91.6434 288.213 89.8269 292.507C88.0104 296.801 87.5351 301.526 88.4612 306.085C89.3872 310.643 91.673 314.83 95.0295 318.117C98.3859 321.404 102.662 323.642 107.318 324.548C111.973 325.455 116.799 324.99 121.184 323.211C125.57 321.433 129.318 318.42 131.955 314.556C134.592 310.691 136 306.148 136 301.5C135.981 295.273 133.447 289.306 128.95 284.903C124.453 280.5 118.359 278.018 112 278ZM112 285.05C113.424 285.05 114.816 285.463 116 286.238C117.184 287.013 118.107 288.114 118.652 289.402C119.197 290.69 119.339 292.108 119.062 293.475C118.784 294.843 118.098 296.099 117.091 297.085C116.084 298.071 114.801 298.743 113.405 299.015C112.008 299.287 110.56 299.147 109.245 298.613C107.929 298.08 106.805 297.176 106.013 296.017C105.222 294.857 104.8 293.494 104.8 292.1C104.806 290.232 105.567 288.443 106.916 287.122C108.265 285.801 110.092 285.056 112 285.05ZM112 318.989C109.156 318.977 106.358 318.285 103.848 316.974C101.339 315.662 99.1941 313.771 97.6 311.465C97.7154 306.765 107.2 304.178 112 304.178C116.8 304.178 126.285 306.765 126.4 311.465C124.804 313.77 122.659 315.659 120.15 316.97C117.641 318.281 114.844 318.974 112 318.989Z" fill="#FABB84"/>
</svg>
