<svg width="403" height="303" viewBox="0 0 403 303" fill="none" xmlns="http://www.w3.org/2000/svg">
<path d="M148.795 127.375H2.70536C1.98811 127.375 1.30049 127.09 0.793318 126.585C0.286149 126.08 0.000842207 125.395 0 124.68V88.5771C0.000842207 87.8625 0.286149 87.1775 0.793318 86.6722C1.30049 86.1669 1.98811 85.8827 2.70536 85.8818H148.795C149.512 85.8827 150.2 86.1669 150.707 86.6722C151.214 87.1775 151.499 87.8625 151.5 88.5771V124.68C151.499 125.395 151.214 126.08 150.707 126.585C150.2 127.09 149.512 127.375 148.795 127.375ZM2.70536 86.9599C2.275 86.9604 1.86241 87.1309 1.5581 87.4341C1.25379 87.7373 1.08261 88.1483 1.08214 88.5771V124.68C1.08261 125.109 1.25379 125.52 1.5581 125.823C1.86241 126.126 2.275 126.297 2.70536 126.297H148.795C149.225 126.297 149.638 126.126 149.942 125.823C150.246 125.52 150.417 125.109 150.418 124.68V88.5771C150.417 88.1483 150.246 87.7373 149.942 87.4341C149.638 87.1309 149.225 86.9604 148.795 86.9599L2.70536 86.9599Z" fill="#3F3D56"/>
<path d="M24.5899 97.4619C23.9546 97.4619 23.3452 97.6652 22.896 98.0272C22.4467 98.3891 22.1943 98.88 22.1943 99.3919C22.1943 99.9037 22.4467 100.395 22.896 100.757C23.3452 101.118 23.9546 101.322 24.5899 101.322H137.525C138.16 101.322 138.77 101.118 139.219 100.757C139.668 100.395 139.92 99.9037 139.92 99.3919C139.92 98.88 139.668 98.3891 139.219 98.0272C138.77 97.6652 138.16 97.4619 137.525 97.4619H24.5899Z" fill="#E6E6E6"/>
<path d="M25.2251 109.041C24.4213 109.041 23.6504 109.194 23.082 109.465C22.5136 109.736 22.1943 110.105 22.1943 110.488C22.1943 110.872 22.5136 111.241 23.082 111.512C23.6504 111.783 24.4213 111.936 25.2251 111.936H86.7059C87.1043 111.936 87.499 111.899 87.8674 111.826C88.2357 111.754 88.5705 111.647 88.8525 111.513C89.1345 111.378 89.3582 111.219 89.5109 111.043C89.6636 110.867 89.7421 110.679 89.7421 110.488C89.7421 110.298 89.6636 110.11 89.5109 109.934C89.3582 109.758 89.1345 109.598 88.8525 109.464C88.5705 109.33 88.2357 109.223 87.8674 109.15C87.499 109.078 87.1043 109.041 86.7059 109.041H25.2251Z" fill="#E6E6E6"/>
<path d="M85.1027 256.681H20.0787C19.3604 256.68 18.6718 256.398 18.1638 255.895C17.6559 255.392 17.3702 254.711 17.3694 254V186.99C17.3702 186.279 17.6559 185.597 18.1638 185.095C18.6718 184.592 19.3604 184.309 20.0787 184.309H85.1027C85.821 184.309 86.5097 184.592 87.0176 185.095C87.5255 185.597 87.8112 186.279 87.8121 186.99V254C87.8112 254.711 87.5255 255.392 87.0176 255.895C86.5097 256.398 85.821 256.68 85.1027 256.681ZM20.0787 185.381C19.6477 185.381 19.2345 185.551 18.9298 185.853C18.625 186.154 18.4536 186.563 18.4531 186.99V254C18.4536 254.427 18.625 254.836 18.9298 255.137C19.2345 255.439 19.6477 255.608 20.0787 255.609H85.1027C85.5337 255.608 85.9469 255.439 86.2517 255.137C86.5564 254.836 86.7279 254.427 86.7283 254V186.99C86.7279 186.563 86.5564 186.154 86.2517 185.853C85.9469 185.551 85.5337 185.381 85.1027 185.381H20.0787Z" fill="#3F3D56"/>
<path d="M34.6274 197.818C34.1451 197.818 33.6826 198.022 33.3415 198.384C33.0005 198.746 32.8088 199.236 32.8088 199.748C32.8088 200.26 33.0005 200.751 33.3415 201.113C33.6826 201.475 34.1451 201.678 34.6274 201.678H71.5189C72.0012 201.678 72.4638 201.475 72.8048 201.113C73.1459 200.751 73.3375 200.26 73.3375 199.748C73.3375 199.236 73.1459 198.746 72.8048 198.384C72.4638 198.022 72.0012 197.818 71.5189 197.818H34.6274Z" fill="#E6E6E6"/>
<path d="M34.6306 208.434C34.3915 208.433 34.1547 208.483 33.9337 208.579C33.7127 208.676 33.5118 208.818 33.3426 208.998C33.1734 209.177 33.0392 209.39 32.9476 209.624C32.856 209.859 32.8088 210.11 32.8088 210.364C32.8088 210.617 32.856 210.869 32.9476 211.103C33.0392 211.337 33.1734 211.55 33.3426 211.729C33.5118 211.909 33.7127 212.051 33.9337 212.148C34.1547 212.244 34.3915 212.294 34.6306 212.293H71.519C72.0013 212.293 72.4639 212.09 72.8049 211.728C73.1459 211.366 73.3375 210.875 73.3375 210.364C73.3375 209.852 73.1459 209.361 72.8049 208.999C72.4639 208.637 72.0013 208.434 71.519 208.434H34.6306Z" fill="#E6E6E6"/>
<path d="M34.6274 218.083C34.1451 218.083 33.6826 218.337 33.3415 218.79C33.0005 219.242 32.8088 219.856 32.8088 220.495C32.8088 221.135 33.0005 221.749 33.3415 222.201C33.6826 222.654 34.1451 222.908 34.6274 222.908H71.5189C72.0012 222.908 72.4638 222.654 72.8048 222.201C73.1459 221.749 73.3375 221.135 73.3375 220.495C73.3375 219.856 73.1459 219.242 72.8048 218.79C72.4638 218.337 72.0012 218.083 71.5189 218.083H34.6274Z" fill="#E6E6E6"/>
<path d="M34.6306 229.662C34.3915 229.662 34.1547 229.711 33.9337 229.808C33.7127 229.905 33.5118 230.047 33.3426 230.226C33.1734 230.405 33.0392 230.618 32.9476 230.853C32.856 231.087 32.8088 231.338 32.8088 231.592C32.8088 231.846 32.856 232.097 32.9476 232.331C33.0392 232.566 33.1734 232.779 33.3426 232.958C33.5118 233.137 33.7127 233.279 33.9337 233.376C34.1547 233.473 34.3915 233.522 34.6306 233.522H71.519C72.0013 233.522 72.4639 233.319 72.8049 232.957C73.1459 232.595 73.3375 232.104 73.3375 231.592C73.3375 231.08 73.1459 230.589 72.8049 230.227C72.4639 229.865 72.0013 229.662 71.519 229.662H34.6306Z" fill="#E6E6E6"/>
<path d="M191.88 31.8438H257.795C258.523 31.8446 259.221 32.1311 259.736 32.6404C260.251 33.1497 260.541 33.8402 260.541 34.5604V102.465C260.541 103.185 260.251 103.875 259.736 104.385C259.221 104.894 258.523 105.18 257.795 105.181H191.88C191.152 105.18 190.454 104.894 189.939 104.385C189.424 103.875 189.135 103.185 189.134 102.465V34.5604C189.135 33.8402 189.424 33.1497 189.939 32.6404C190.454 32.1311 191.152 31.8446 191.88 31.8438ZM257.795 104.095C258.232 104.094 258.651 103.922 258.96 103.617C259.269 103.311 259.442 102.897 259.443 102.465V34.5604C259.442 34.1283 259.269 33.714 258.96 33.4084C258.651 33.1028 258.232 32.9309 257.795 32.9304H191.88C191.443 32.9309 191.024 33.1028 190.716 33.4084C190.407 33.714 190.233 34.1283 190.232 34.5604V102.465C190.233 102.897 190.407 103.311 190.716 103.617C191.024 103.922 191.443 104.094 191.88 104.095H257.795Z" fill="#3F3D56"/>
<path d="M243.283 91.6724C243.766 91.6724 244.228 91.469 244.569 91.1071C244.91 90.7452 245.102 90.2543 245.102 89.7424C245.102 89.2306 244.91 88.7397 244.569 88.3778C244.228 88.0158 243.766 87.8125 243.283 87.8125H206.392C205.91 87.8125 205.447 88.0158 205.106 88.3778C204.765 88.7397 204.573 89.2306 204.573 89.7424C204.573 90.2543 204.765 90.7452 205.106 91.1071C205.447 91.469 205.91 91.6724 206.392 91.6724H243.283Z" fill="#E6E6E6"/>
<path d="M243.283 80.0922C243.766 80.0922 244.228 79.9397 244.569 79.6682C244.91 79.3968 245.102 79.0286 245.102 78.6447C245.102 78.2608 244.91 77.8927 244.569 77.6212C244.228 77.3498 243.766 77.1973 243.283 77.1973H206.392C205.91 77.1973 205.447 77.3498 205.106 77.6212C204.765 77.8927 204.573 78.2608 204.573 78.6447C204.573 79.0286 204.765 79.3968 205.106 79.6682C205.447 79.9397 205.91 80.0922 206.392 80.0922H243.283Z" fill="#E6E6E6"/>
<path d="M243.11 69.478C243.638 69.478 244.145 69.2747 244.519 68.9128C244.892 68.5508 245.102 68.06 245.102 67.5481C245.102 67.0362 244.892 66.5454 244.519 66.1834C244.145 65.8215 243.638 65.6182 243.11 65.6182H202.705C202.177 65.6182 201.67 65.8215 201.297 66.1834C200.923 66.5454 200.713 67.0362 200.713 67.5481C200.713 68.06 200.923 68.5508 201.297 68.9128C201.67 69.2747 202.177 69.478 202.705 69.478H243.11Z" fill="#E6E6E6"/>
<path d="M243.067 58.8629C243.607 58.8629 244.124 58.6088 244.506 58.1563C244.888 57.7039 245.102 57.0903 245.102 56.4505C245.102 55.8107 244.888 55.1971 244.506 54.7447C244.124 54.2923 243.607 54.0381 243.067 54.0381H201.784C201.244 54.0381 200.726 54.2923 200.345 54.7447C199.963 55.1971 199.749 55.8107 199.749 56.4505C199.749 57.0903 199.963 57.7039 200.345 58.1563C200.726 58.6088 201.244 58.8629 201.784 58.8629H243.067Z" fill="#E6E6E6"/>
<path d="M336.003 231.592H207.275C206.558 231.591 205.872 231.307 205.365 230.8C204.859 230.294 204.574 229.607 204.573 228.891V161.921C204.574 161.205 204.859 160.518 205.365 160.012C205.872 159.505 206.558 159.221 207.275 159.22H336.003C336.719 159.221 337.405 159.505 337.912 160.012C338.418 160.518 338.703 161.205 338.704 161.921V228.891C338.703 229.607 338.418 230.294 337.912 230.8C337.405 231.307 336.719 231.592 336.003 231.592ZM207.275 160.3C206.845 160.301 206.433 160.472 206.129 160.775C205.825 161.079 205.654 161.491 205.654 161.921V228.891C205.654 229.321 205.825 229.733 206.129 230.037C206.433 230.341 206.845 230.511 207.275 230.512H336.003C336.432 230.511 336.844 230.341 337.148 230.037C337.452 229.733 337.623 229.321 337.623 228.891V161.921C337.623 161.491 337.452 161.079 337.148 160.775C336.844 160.472 336.432 160.301 336.003 160.3H207.275Z" fill="#3F3D56"/>
<path d="M253.703 175.624C253.46 175.624 253.22 175.673 252.996 175.77C252.772 175.867 252.569 176.009 252.397 176.188C252.226 176.367 252.09 176.58 251.997 176.815C251.904 177.049 251.856 177.3 251.856 177.554C251.856 177.808 251.904 178.059 251.997 178.293C252.09 178.528 252.226 178.741 252.397 178.92C252.569 179.099 252.772 179.241 252.996 179.338C253.22 179.435 253.46 179.484 253.703 179.484H323.351C323.84 179.484 324.309 179.281 324.654 178.919C325 178.557 325.194 178.066 325.194 177.554C325.194 177.042 325 176.551 324.654 176.189C324.309 175.827 323.84 175.624 323.351 175.624H253.703Z" fill="#E6E6E6"/>
<path d="M253.722 186.239C253.477 186.239 253.234 186.288 253.008 186.385C252.782 186.482 252.576 186.624 252.403 186.803C252.23 186.983 252.092 187.195 251.998 187.43C251.905 187.664 251.856 187.915 251.856 188.169C251.856 188.423 251.905 188.674 251.998 188.909C252.092 189.143 252.23 189.356 252.403 189.535C252.576 189.714 252.782 189.856 253.008 189.953C253.234 190.05 253.477 190.1 253.722 190.099H291.488C291.982 190.099 292.456 189.896 292.805 189.534C293.154 189.172 293.35 188.681 293.35 188.169C293.35 187.657 293.154 187.166 292.805 186.805C292.456 186.443 291.982 186.239 291.488 186.239H253.722Z" fill="#E6E6E6"/>
<path d="M220.611 204.573C219.217 204.573 218.083 205.223 218.083 206.021C218.083 206.819 219.217 207.468 220.611 207.468H322.666C324.06 207.468 325.194 206.819 325.194 206.021C325.194 205.223 324.06 204.573 322.666 204.573H220.611Z" fill="#E6E6E6"/>
<path d="M220.611 215.188C219.217 215.188 218.083 215.837 218.083 216.635C218.083 217.433 219.217 218.082 220.611 218.082H322.666C324.06 218.082 325.194 217.433 325.194 216.635C325.194 215.837 324.06 215.188 322.666 215.188H220.611Z" fill="#E6E6E6"/>
<path d="M194.107 303H128.192C127.464 303 126.766 302.715 126.251 302.21C125.736 301.705 125.447 301.02 125.446 300.305V264.202C125.447 263.488 125.736 262.802 126.251 262.297C126.766 261.792 127.464 261.508 128.192 261.507H194.107C194.835 261.508 195.533 261.792 196.048 262.297C196.563 262.802 196.853 263.488 196.853 264.202V300.305C196.853 301.02 196.563 301.705 196.048 302.21C195.533 302.715 194.835 303 194.107 303ZM128.192 262.585C127.755 262.585 127.336 262.756 127.028 263.059C126.719 263.362 126.545 263.773 126.544 264.202V300.305C126.545 300.734 126.719 301.145 127.028 301.448C127.336 301.751 127.755 301.922 128.192 301.922H194.107C194.544 301.922 194.963 301.751 195.272 301.448C195.581 301.145 195.754 300.734 195.755 300.305V264.202C195.754 263.773 195.581 263.362 195.272 263.059C194.963 262.756 194.544 262.585 194.107 262.585H128.192Z" fill="#3F3D56"/>
<path d="M324.229 55.9678H402.392V81.9749H399.431V88.7767L392.72 81.9749H324.229V55.9678Z" fill="#BBB9B9"/>
<path d="M400.462 79.1276H325.194V58.8633H384.071C388.416 58.868 392.583 60.529 395.656 63.4819C398.728 66.4347 400.457 70.4384 400.462 74.6144V79.1276Z" fill="white"/>
<path d="M375.373 92.6367H298.175V118.644H301.099V125.446L307.728 118.644H375.373V92.6367Z" fill="#BBB9B9"/>
<path d="M374.408 116.761H313.309C309.808 116.758 306.452 115.402 303.977 112.993C301.501 110.583 300.109 107.316 300.105 103.908V96.4971H374.408V116.761Z" fill="white"/>
<path d="M369.583 102.287H305.895V103.252H369.583V102.287Z" fill="#3449FF"/>
<path d="M369.583 105.182H305.895V107.112H369.583V105.182Z" fill="#E6E6E6"/>
<path d="M392.742 64.6533H330.019V66.5833H392.742V64.6533Z" fill="#3449FF"/>
<path d="M392.742 67.5479H330.019V69.4778H392.742V67.5479Z" fill="#E6E6E6"/>
<path d="M37.6338 17.3691H95.5319V35.7271H93.3388V40.5284L88.3677 35.7271H37.6338V17.3691Z" fill="#BBB9B9"/>
<path d="M94.5669 33.7743H39.5637V19.2998H82.5886C85.7644 19.3032 88.809 20.4896 91.0546 22.5988C93.3002 24.708 94.5633 27.5677 94.5669 30.5506V33.7743Z" fill="white"/>
<path d="M76.2326 44.3887H18.3345V62.7465H20.5275V67.5479L25.4987 62.7465H76.2326V44.3887Z" fill="#8D8B8B" fill-opacity="0.6"/>
<path d="M74.3026 60.7929H29.8674C27.3214 60.7901 24.8805 59.822 23.0802 58.1008C21.28 56.3797 20.2673 54.0461 20.2644 51.6121V46.3184H74.3026V60.7929Z" fill="white"/>
<path d="M71.4076 50.1787H25.0891V52.1086H71.4076V50.1787Z" fill="#3449FF"/>
<path d="M87.812 23.1592H42.4585V24.1241H87.812V23.1592Z" fill="#3449FF"/>
<path d="M87.812 26.0537H42.4585V27.0187H87.812V26.0537Z" fill="#E6E6E6"/>
<path d="M120.621 143.78H178.519V162.138H176.326V166.94L171.355 162.138H120.621V143.78Z" fill="#BBB9B9"/>
<path d="M177.554 161.149H122.551V145.71H165.576C168.752 145.714 171.796 146.979 174.042 149.229C176.287 151.479 177.551 154.529 177.554 157.711V161.149Z" fill="white"/>
<path d="M159.22 170.8H101.322V189.923H103.515V194.924L108.486 189.923H159.22V170.8Z" fill="#BBB9B9"/>
<path d="M157.29 188.169H112.061C109.47 188.166 106.985 187.198 105.153 185.477C103.32 183.756 102.29 181.422 102.287 178.988V173.694H157.29V188.169Z" fill="white"/>
<path d="M153.43 177.554H107.112V179.484H153.43V177.554Z" fill="#3449FF"/>
<path d="M153.43 180.449H107.112V181.414H153.43V180.449Z" fill="#E6E6E6"/>
<path d="M170.799 149.57H124.481V151.5H170.799V149.57Z" fill="#3449FF"/>
<path d="M170.799 153.43H124.481V154.395H170.799V153.43Z" fill="#E6E6E6"/>
<path d="M170.799 155.36H124.481V156.325H170.799V155.36Z" fill="#E6E6E6"/>
<path d="M132.201 261.507C150.765 199.002 188.184 205.513 204.573 216.582" stroke="black"/>
<path d="M338.866 181.106C383.606 164.729 378.345 133.455 370.123 119.866" stroke="black"/>
<path d="M151.95 114.094C216.507 110.42 220.024 143.129 213.713 159.942" stroke="black"/>
<path d="M41.5099 185.274C40.8393 141.362 61.1624 128.379 71.4077 127.376" stroke="black"/>
<path d="M88.0722 238.777C108.783 203.378 112.356 191.427 111.554 189.877" stroke="black"/>
<path d="M152.465 143.78C155.132 118.946 178.022 93.5472 189.134 83.9521" stroke="black"/>
<path d="M126.411 86.8468C124.025 67.6203 103.544 47.9568 93.602 40.5283" stroke="black"/>
<path d="M159.22 261.506C158.799 232.266 155.184 202.361 153.43 191.063" stroke="black"/>
<path opacity="0.3" d="M179.294 188.033C196.772 188.033 210.94 173.865 210.94 156.387C210.94 138.91 196.772 124.741 179.294 124.741C161.816 124.741 147.648 138.91 147.648 156.387C147.648 173.865 161.816 188.033 179.294 188.033Z" fill="#F8A45B"/>
<path opacity="0.3" d="M179.293 177.485C190.945 177.485 200.391 168.039 200.391 156.387C200.391 144.736 190.945 135.29 179.293 135.29C167.641 135.29 158.196 144.736 158.196 156.387C158.196 168.039 167.641 177.485 179.293 177.485Z" fill="#F8A45B"/>
<path d="M179.293 171.039C187.385 171.039 193.944 164.48 193.944 156.388C193.944 148.297 187.385 141.737 179.293 141.737C171.202 141.737 164.642 148.297 164.642 156.388C164.642 164.48 171.202 171.039 179.293 171.039Z" fill="#F8A45B"/>
<path opacity="0.3" d="M161.474 282.05C178.951 282.05 193.12 267.882 193.12 250.404C193.12 232.926 178.951 218.758 161.474 218.758C143.996 218.758 129.827 232.926 129.827 250.404C129.827 267.882 143.996 282.05 161.474 282.05Z" fill="#F8A45B"/>
<path opacity="0.3" d="M161.473 271.501C173.125 271.501 182.57 262.056 182.57 250.404C182.57 238.752 173.125 229.307 161.473 229.307C149.821 229.307 140.375 238.752 140.375 250.404C140.375 262.056 149.821 271.501 161.473 271.501Z" fill="#F8A45B"/>
<path d="M161.473 265.056C169.564 265.056 176.124 258.496 176.124 250.405C176.124 242.313 169.564 235.754 161.473 235.754C153.381 235.754 146.822 242.313 146.822 250.405C146.822 258.496 153.381 265.056 161.473 265.056Z" fill="#F8A45B"/>
<path opacity="0.3" d="M345.205 216.914C362.683 216.914 376.851 202.746 376.851 185.268C376.851 167.791 362.683 153.622 345.205 153.622C327.728 153.622 313.559 167.791 313.559 185.268C313.559 202.746 327.728 216.914 345.205 216.914Z" fill="#F8A45B"/>
<path opacity="0.3" d="M345.204 206.366C356.856 206.366 366.302 196.92 366.302 185.268C366.302 173.617 356.856 164.171 345.204 164.171C333.552 164.171 324.107 173.617 324.107 185.268C324.107 196.92 333.552 206.366 345.204 206.366Z" fill="#F8A45B"/>
<path d="M345.204 199.92C353.296 199.92 359.855 193.361 359.855 185.269C359.855 177.178 353.296 170.618 345.204 170.618C337.113 170.618 330.553 177.178 330.553 185.269C330.553 193.361 337.113 199.92 345.204 199.92Z" fill="#F8A45B"/>
<path opacity="0.3" d="M37.3468 208.926C54.8245 208.926 68.993 194.758 68.993 177.28C68.993 159.802 54.8245 145.634 37.3468 145.634C19.8691 145.634 5.70068 159.802 5.70068 177.28C5.70068 194.758 19.8691 208.926 37.3468 208.926Z" fill="#F8A45B"/>
<path opacity="0.3" d="M37.346 198.377C48.9977 198.377 58.4434 188.932 58.4434 177.28C58.4434 165.628 48.9977 156.183 37.346 156.183C25.6942 156.183 16.2485 165.628 16.2485 177.28C16.2485 188.932 25.6942 198.377 37.346 198.377Z" fill="#F8A45B"/>
<path d="M37.3461 191.932C45.4376 191.932 51.997 185.372 51.997 177.281C51.997 169.189 45.4376 162.63 37.3461 162.63C29.2545 162.63 22.6951 169.189 22.6951 177.281C22.6951 185.372 29.2545 191.932 37.3461 191.932Z" fill="#F8A45B"/>
<path opacity="0.3" d="M98.1813 63.2923C115.659 63.2923 129.827 49.1238 129.827 31.6461C129.827 14.1685 115.659 0 98.1813 0C80.7036 0 66.5352 14.1685 66.5352 31.6461C66.5352 49.1238 80.7036 63.2923 98.1813 63.2923Z" fill="#F8A45B"/>
<path opacity="0.3" d="M98.1804 52.7437C109.832 52.7437 119.278 43.298 119.278 31.6462C119.278 19.9945 109.832 10.5488 98.1804 10.5488C86.5286 10.5488 77.083 19.9945 77.083 31.6462C77.083 43.298 86.5286 52.7437 98.1804 52.7437Z" fill="#F8A45B"/>
<path d="M98.1805 46.2981C106.272 46.2981 112.832 39.7386 112.832 31.6471C112.832 23.5556 106.272 16.9961 98.1805 16.9961C90.089 16.9961 83.5295 23.5556 83.5295 31.6471C83.5295 39.7386 90.089 46.2981 98.1805 46.2981Z" fill="#F8A45B"/>
<path d="M136.599 271.156C135.944 271.156 135.316 271.36 134.854 271.722C134.391 272.083 134.131 272.574 134.131 273.086C134.131 273.598 134.391 274.089 134.854 274.451C135.316 274.813 135.944 275.016 136.599 275.016H186.666C187.32 275.016 187.948 274.813 188.411 274.451C188.874 274.089 189.134 273.598 189.134 273.086C189.134 272.574 188.874 272.083 188.411 271.722C187.948 271.36 187.32 271.156 186.666 271.156H136.599Z" fill="#E6E6E6"/>
<path d="M136.603 282.735C136.279 282.735 135.957 282.784 135.657 282.881C135.357 282.978 135.085 283.12 134.855 283.299C134.625 283.479 134.443 283.692 134.319 283.926C134.195 284.16 134.131 284.412 134.131 284.665C134.131 284.919 134.195 285.17 134.319 285.405C134.443 285.639 134.625 285.852 134.855 286.031C135.085 286.21 135.357 286.353 135.657 286.449C135.957 286.546 136.279 286.596 136.603 286.595H186.666C187.32 286.595 187.948 286.392 188.411 286.03C188.874 285.668 189.134 285.177 189.134 284.665C189.134 284.153 188.874 283.663 188.411 283.301C187.948 282.939 187.32 282.735 186.666 282.735H136.603Z" fill="#E6E6E6"/>
</svg>
