<svg width="362" height="254" viewBox="0 0 362 254" fill="none" xmlns="http://www.w3.org/2000/svg">
<path d="M295.786 158.927H62.2004C60.6059 158.925 59.0772 158.293 57.9497 157.168C56.8222 156.043 56.188 154.517 56.1862 152.926V9.21283C56.1875 8.04725 56.6521 6.92979 57.4781 6.10558C58.3041 5.28138 59.424 4.81775 60.5922 4.81641H297.318C298.506 4.81775 299.646 5.28939 300.486 6.12785C301.326 6.9663 301.799 8.1031 301.8 9.28884V152.926C301.799 154.517 301.164 156.043 300.037 157.168C298.909 158.293 297.381 158.925 295.786 158.927Z" fill="#F2F2F2"/>
<path d="M287.196 150.097H69.9871C66.803 150.097 64.2126 147.681 64.2126 144.711V20.0476C64.2126 17.8449 66.1322 16.0527 68.4916 16.0527H288.621C291.02 16.0527 292.971 17.8744 292.971 20.1134V144.711C292.971 147.681 290.381 150.097 287.196 150.097Z" fill="white"/>
<path d="M301.8 8.82927H56.1862V5.85657C56.1885 4.30337 56.8253 2.81449 57.9569 1.71655C59.0885 0.618609 60.6225 0.0012832 62.2223 0H295.764C297.364 0.00127572 298.898 0.618599 300.03 1.71654C301.161 2.81448 301.798 4.30337 301.8 5.85657V8.82927Z" fill="#CCCCCC"/>
<path d="M67.4234 5.61885C68.31 5.61885 69.0288 4.90012 69.0288 4.01352C69.0288 3.12693 68.31 2.4082 67.4234 2.4082C66.5368 2.4082 65.8181 3.12693 65.8181 4.01352C65.8181 4.90012 66.5368 5.61885 67.4234 5.61885Z" fill="white"/>
<path d="M73.0422 5.61885C73.9288 5.61885 74.6475 4.90012 74.6475 4.01352C74.6475 3.12693 73.9288 2.4082 73.0422 2.4082C72.1556 2.4082 71.4369 3.12693 71.4369 4.01352C71.4369 4.90012 72.1556 5.61885 73.0422 5.61885Z" fill="white"/>
<path d="M79.4632 5.61885C80.3498 5.61885 81.0686 4.90012 81.0686 4.01352C81.0686 3.12693 80.3498 2.4082 79.4632 2.4082C78.5766 2.4082 77.8579 3.12693 77.8579 4.01352C77.8579 4.90012 78.5766 5.61885 79.4632 5.61885Z" fill="white"/>
<path d="M263.317 129.229H94.6693C92.9787 129.227 91.3579 128.556 90.1625 127.362C88.9671 126.169 88.2946 124.551 88.2927 122.863V41.6841C88.2941 40.4218 88.797 39.2116 89.6911 38.319C90.5851 37.4264 91.7973 36.9243 93.0617 36.9229H264.849C266.133 36.9243 267.365 37.4344 268.273 38.3413C269.182 39.2481 269.693 40.4777 269.694 41.7601V122.863C269.692 124.551 269.02 126.169 267.824 127.362C266.629 128.556 265.008 129.227 263.317 129.229ZM93.0617 37.6504C91.9905 37.6516 90.9635 38.077 90.2061 38.8332C89.4487 39.5894 89.0227 40.6147 89.0215 41.6841V122.863C89.0232 124.358 89.6187 125.791 90.6776 126.848C91.7364 127.905 93.1719 128.5 94.6693 128.501H263.317C264.815 128.5 266.25 127.905 267.309 126.848C268.368 125.791 268.964 124.358 268.965 122.863V41.7601C268.964 40.6706 268.53 39.626 267.758 38.8555C266.987 38.085 265.94 37.6516 264.849 37.6504H93.0617Z" fill="#CCCCCC"/>
<path d="M100.541 122.807H257.446C258.991 122.807 260.473 122.194 261.566 121.103C262.659 120.012 263.273 118.533 263.273 116.99V49.1613C263.273 47.6184 262.659 46.1387 261.566 45.0477C260.473 43.9567 258.991 43.3438 257.446 43.3438H100.541C98.9957 43.3438 97.5136 43.9567 96.4208 45.0477C95.328 46.1387 94.7141 47.6184 94.7141 49.1613V116.99C94.7141 118.533 95.328 120.012 96.4208 121.103C97.5136 122.194 98.9957 122.807 100.541 122.807Z" fill="#F2F2F2"/>
<path d="M118.794 63.4105C120.567 63.4105 122.005 61.9731 122.005 60.1999C122.005 58.4267 120.567 56.9893 118.794 56.9893C117.021 56.9893 115.583 58.4267 115.583 60.1999C115.583 61.9731 117.021 63.4105 118.794 63.4105Z" fill="#CCCCCC"/>
<path d="M118.794 75.4496C120.567 75.4496 122.005 74.0122 122.005 72.239C122.005 70.4658 120.567 69.0283 118.794 69.0283C117.021 69.0283 115.583 70.4658 115.583 72.239C115.583 74.0122 117.021 75.4496 118.794 75.4496Z" fill="#CCCCCC"/>
<path d="M118.794 88.2924C120.567 88.2924 122.005 86.8549 122.005 85.0817C122.005 83.3085 120.567 81.8711 118.794 81.8711C117.021 81.8711 115.583 83.3085 115.583 85.0817C115.583 86.8549 117.021 88.2924 118.794 88.2924Z" fill="#CCCCCC"/>
<path d="M118.794 100.332C120.567 100.332 122.005 98.895 122.005 97.1218C122.005 95.3486 120.567 93.9111 118.794 93.9111C117.021 93.9111 115.583 95.3486 115.583 97.1218C115.583 98.895 117.021 100.332 118.794 100.332Z" fill="#CCCCCC"/>
<path d="M242.842 60.1991H135.21C135.114 60.1991 135.022 60.1569 134.953 60.0816C134.885 60.0063 134.847 59.9043 134.847 59.7978C134.847 59.6914 134.885 59.5893 134.953 59.514C135.022 59.4388 135.114 59.3965 135.21 59.3965H242.842C242.939 59.3965 243.031 59.4388 243.099 59.514C243.168 59.5893 243.206 59.6914 243.206 59.7978C243.206 59.9043 243.168 60.0063 243.099 60.0816C243.031 60.1569 242.939 60.1991 242.842 60.1991Z" fill="#CCCCCC"/>
<path d="M242.842 73.0419H135.21C135.114 73.0419 135.022 72.9996 134.953 72.9244C134.885 72.8491 134.847 72.747 134.847 72.6406C134.847 72.5341 134.885 72.4321 134.953 72.3568C135.022 72.2815 135.114 72.2393 135.21 72.2393H242.842C242.939 72.2393 243.031 72.2815 243.099 72.3568C243.168 72.4321 243.206 72.5341 243.206 72.6406C243.206 72.747 243.168 72.8491 243.099 72.9244C243.031 72.9996 242.939 73.0419 242.842 73.0419Z" fill="#CCCCCC"/>
<path d="M242.842 85.082H135.21C135.114 85.082 135.022 85.0397 134.953 84.9644C134.885 84.8892 134.847 84.7871 134.847 84.6806C134.847 84.5742 134.885 84.4721 134.953 84.3968C135.022 84.3216 135.114 84.2793 135.21 84.2793H242.842C242.939 84.2793 243.031 84.3216 243.099 84.3968C243.168 84.4721 243.206 84.5742 243.206 84.6806C243.206 84.7871 243.168 84.8892 243.099 84.9644C243.031 85.0397 242.939 85.082 242.842 85.082Z" fill="#CCCCCC"/>
<path d="M242.842 97.9247H135.21C135.114 97.9247 135.022 97.8825 134.953 97.8072C134.885 97.7319 134.847 97.6298 134.847 97.5234C134.847 97.417 134.885 97.3149 134.953 97.2396C135.022 97.1644 135.114 97.1221 135.21 97.1221H242.842C242.939 97.1221 243.031 97.1644 243.099 97.2396C243.168 97.3149 243.206 97.417 243.206 97.5234C243.206 97.6298 243.168 97.7319 243.099 97.8072C243.031 97.8825 242.939 97.9247 242.842 97.9247Z" fill="#CCCCCC"/>
<path d="M155.469 109.965H144.726C144.235 109.964 143.764 109.77 143.417 109.424C143.07 109.078 142.874 108.609 142.874 108.121V98.1633C142.874 97.6744 143.07 97.2057 143.417 96.86C143.764 96.5144 144.235 96.3199 144.726 96.3193H155.469C155.96 96.3199 156.431 96.5144 156.779 96.86C157.126 97.2057 157.321 97.6744 157.322 98.1633V108.121C157.321 108.609 157.126 109.078 156.779 109.424C156.431 109.77 155.96 109.964 155.469 109.965Z" fill="#97B8D7"/>
<path d="M178.746 109.964H168.003C167.512 109.964 167.041 109.773 166.694 109.434C166.347 109.095 166.151 108.635 166.151 108.156V86.0881C166.151 85.6086 166.347 85.1488 166.694 84.8097C167.041 84.4706 167.512 84.2798 168.003 84.2793H178.746C179.237 84.2798 179.708 84.4706 180.055 84.8097C180.403 85.1488 180.598 85.6086 180.599 86.0881V108.156C180.598 108.635 180.403 109.095 180.055 109.434C179.708 109.773 179.237 109.964 178.746 109.964Z" fill="#97B8D7"/>
<path d="M202.826 109.964H192.083C191.592 109.964 191.121 109.77 190.774 109.426C190.426 109.082 190.231 108.616 190.231 108.13V73.2712C190.231 72.7848 190.426 72.3184 190.774 71.9745C191.121 71.6306 191.592 71.4371 192.083 71.4365H202.826C203.317 71.4371 203.788 71.6306 204.135 71.9745C204.483 72.3184 204.678 72.7848 204.678 73.2712V108.13C204.678 108.616 204.483 109.082 204.135 109.426C203.788 109.77 203.317 109.964 202.826 109.964Z" fill="#97B8D7"/>
<path d="M227.709 109.964H216.965C216.474 109.964 216.003 109.77 215.656 109.427C215.309 109.083 215.113 108.618 215.113 108.132V61.2286C215.113 60.7429 215.309 60.2772 215.656 59.9337C216.003 59.5903 216.474 59.397 216.965 59.3965H227.709C228.2 59.397 228.67 59.5903 229.018 59.9337C229.365 60.2772 229.56 60.7429 229.561 61.2286V108.132C229.56 108.618 229.365 109.083 229.018 109.427C228.67 109.77 228.2 109.964 227.709 109.964Z" fill="#97B8D7"/>
<path d="M242.842 109.965H135.21C135.114 109.965 135.022 109.922 134.953 109.847C134.885 109.772 134.847 109.67 134.847 109.563C134.847 109.457 134.885 109.355 134.953 109.28C135.022 109.204 135.114 109.162 135.21 109.162H242.842C242.939 109.162 243.031 109.204 243.099 109.28C243.168 109.355 243.206 109.457 243.206 109.563C243.206 109.67 243.168 109.772 243.099 109.847C243.031 109.922 242.939 109.965 242.842 109.965Z" fill="#3F3D56"/>
<path d="M289.577 177.842C289.871 177.377 290.258 176.985 290.711 176.693C291.165 176.402 291.674 176.218 292.203 176.155C292.731 176.092 293.267 176.151 293.771 176.329C294.276 176.506 294.737 176.797 295.123 177.181L306.617 170.967L305.902 177.968L295.096 182.796C294.437 183.432 293.579 183.792 292.683 183.809C291.787 183.826 290.917 183.498 290.237 182.887C289.556 182.276 289.113 181.426 288.992 180.496C288.87 179.566 289.079 178.622 289.577 177.842Z" fill="#FFB8B8"/>
<path d="M300.099 180.251C299.843 180.047 299.654 179.767 299.557 179.45L298.66 176.492C298.564 176.172 298.566 175.829 298.667 175.51C298.768 175.191 298.962 174.911 299.224 174.709L308.367 167.662L318.268 148.919C318.683 148.374 319.199 147.917 319.787 147.576C320.374 147.234 321.022 147.014 321.693 146.928C322.364 146.842 323.045 146.891 323.697 147.074C324.349 147.256 324.96 147.568 325.494 147.991C326.028 148.414 326.475 148.941 326.81 149.54C327.145 150.14 327.361 150.801 327.445 151.485C327.53 152.17 327.481 152.865 327.302 153.53C327.123 154.196 326.818 154.819 326.403 155.364L320.77 167.496C319.06 171.178 316.099 174.101 312.435 175.722L301.721 180.464C301.514 180.555 301.292 180.601 301.067 180.598C300.843 180.596 300.621 180.545 300.417 180.45C300.304 180.397 300.197 180.33 300.099 180.251Z" fill="#EE6A76"/>
<path d="M327.084 141.268C332.182 141.268 336.315 137.135 336.315 132.037C336.315 126.939 332.182 122.807 327.084 122.807C321.986 122.807 317.854 126.939 317.854 132.037C317.854 137.135 321.986 141.268 327.084 141.268Z" fill="#FFB8B8"/>
<path d="M323.47 249.627L319.12 249.627L317.051 231.969L323.472 231.969L323.47 249.627Z" fill="#FFB8B8"/>
<path d="M315.902 248.022H324.275V253.641H310.63C310.63 252.903 310.766 252.173 311.031 251.491C311.296 250.809 311.684 250.19 312.174 249.668C312.664 249.146 313.245 248.733 313.884 248.45C314.524 248.168 315.21 248.022 315.902 248.022Z" fill="#2F2E41"/>
<path d="M337.918 249.627L333.568 249.627L331.499 231.969L337.92 231.97L337.918 249.627Z" fill="#FFB8B8"/>
<path d="M330.349 248.022H338.723V253.641H325.077C325.077 252.903 325.214 252.173 325.479 251.491C325.744 250.809 326.132 250.19 326.622 249.668C327.111 249.146 327.692 248.733 328.332 248.45C328.972 248.168 329.657 248.022 330.349 248.022Z" fill="#2F2E41"/>
<path d="M337.911 244.812L332.755 244.812C332.4 244.811 332.055 244.693 331.773 244.475C331.491 244.257 331.288 243.951 331.195 243.605L323.774 215.803C323.762 215.76 323.735 215.722 323.698 215.698C323.661 215.673 323.616 215.664 323.572 215.671C323.528 215.678 323.488 215.702 323.461 215.737C323.433 215.772 323.419 215.816 323.422 215.861L324.921 242.228C324.934 242.461 324.898 242.694 324.814 242.912C324.73 243.13 324.601 243.327 324.436 243.49C324.27 243.653 324.072 243.778 323.854 243.857C323.636 243.935 323.405 243.966 323.174 243.947L317.379 243.459C317.008 243.427 316.659 243.266 316.391 243.004C316.123 242.743 315.953 242.396 315.909 242.022L310.63 186.656L312.672 187.894L331.811 184.612L339.512 242.965C339.542 243.196 339.523 243.43 339.457 243.652C339.39 243.875 339.277 244.08 339.126 244.255C338.974 244.43 338.787 244.57 338.578 244.666C338.368 244.762 338.141 244.812 337.911 244.812Z" fill="#121535"/>
<path d="M316.803 192.638C314.63 192.621 312.501 192.033 310.638 190.935C310.351 190.768 310.123 190.52 309.982 190.223C309.841 189.926 309.795 189.594 309.85 189.271C310.542 185.106 314.165 163.743 317.46 152.097C318.803 147.353 321.771 144.798 326.282 144.503C332.881 144.078 338.747 149.147 339.357 155.816C340.435 167.58 336.058 184.296 334.126 190.936C334.052 191.193 333.914 191.427 333.725 191.619C333.536 191.811 333.302 191.955 333.044 192.037C332.786 192.12 332.511 192.139 332.243 192.093C331.975 192.046 331.723 191.937 331.509 191.772L327.571 188.765C327.329 188.584 327.03 188.491 326.725 188.503C326.42 188.516 326.13 188.633 325.904 188.834C322.585 191.74 319.432 192.638 316.803 192.638Z" fill="#EE6A76"/>
<path opacity="0.2" d="M329.771 161.335L333.104 175.279L328.288 187.02L331.623 175.646L329.771 161.335Z" fill="black"/>
<path d="M332.272 139.662C333.059 139.677 333.841 139.534 334.573 139.242C334.895 139.117 335.229 139.014 335.551 138.889C338.389 137.782 340.259 134.732 340.326 131.661C340.393 128.591 338.818 125.611 336.479 123.647C334.139 121.683 331.109 120.675 328.075 120.442C324.807 120.19 321.127 121.027 319.3 123.774C318.814 124.505 318.474 125.392 318.762 126.275C318.848 126.541 319.003 126.78 319.209 126.967C320.025 127.7 320.838 127.149 321.669 127.1C322.812 127.034 323.838 127.967 324.207 129.061C324.576 130.154 324.414 131.358 324.116 132.474C323.889 133.145 323.746 133.842 323.69 134.549C323.666 134.904 323.732 135.258 323.882 135.58C324.031 135.901 324.26 136.179 324.546 136.386C325.26 136.822 326.198 136.57 326.913 136.135C327.627 135.7 328.245 135.095 329.016 134.775C329.788 134.455 330.825 134.526 331.274 135.236C331.417 135.494 331.514 135.776 331.56 136.068C331.962 137.92 331.87 137.811 332.272 139.662Z" fill="#BAD0E4"/>
<path d="M318.412 236.573L262.628 217.084C261.67 216.749 260.885 216.046 260.444 215.13C260.002 214.214 259.941 213.16 260.274 212.199L274.77 170.444C275.015 169.741 275.528 169.163 276.197 168.839C276.866 168.515 277.636 168.47 278.338 168.714L336.008 188.861C336.721 189.111 337.307 189.635 337.636 190.318C337.965 191 338.01 191.786 337.762 192.502L323.282 234.211C322.947 235.171 322.247 235.959 321.334 236.402C320.421 236.845 319.37 236.906 318.412 236.573Z" fill="#E6E6E6"/>
<path d="M267.349 214.842L315.785 231.764C316.707 232.086 317.719 232.028 318.599 231.601C319.478 231.175 320.152 230.415 320.474 229.49L332.097 196.009C332.418 195.084 332.36 194.068 331.935 193.186C331.509 192.304 330.752 191.627 329.83 191.305L281.395 174.383C280.472 174.061 279.46 174.12 278.581 174.546C277.702 174.972 277.027 175.732 276.706 176.657L265.083 210.138C264.924 210.596 264.856 211.081 264.884 211.566C264.912 212.05 265.035 212.524 265.245 212.961C265.456 213.398 265.75 213.789 266.111 214.111C266.472 214.434 266.893 214.682 267.349 214.842Z" fill="white"/>
<path d="M279.498 191.006L277.245 190.221C277.123 190.179 277.023 190.089 276.967 189.973C276.91 189.856 276.902 189.722 276.945 189.6L277.729 187.347C277.772 187.225 277.862 187.125 277.978 187.068C278.095 187.012 278.229 187.004 278.351 187.047L280.604 187.831C280.726 187.874 280.826 187.963 280.882 188.08C280.939 188.196 280.947 188.33 280.904 188.452L280.12 190.705C280.077 190.828 279.987 190.928 279.871 190.984C279.754 191.04 279.62 191.048 279.498 191.006Z" fill="#97B8D7"/>
<path d="M277.09 197.428L274.837 196.643C274.715 196.6 274.615 196.511 274.559 196.395C274.502 196.278 274.495 196.144 274.537 196.022L275.322 193.769C275.364 193.647 275.454 193.546 275.57 193.49C275.687 193.434 275.821 193.426 275.943 193.468L278.196 194.253C278.318 194.296 278.418 194.385 278.475 194.502C278.531 194.618 278.539 194.752 278.496 194.874L277.712 197.127C277.669 197.249 277.58 197.35 277.463 197.406C277.347 197.462 277.213 197.47 277.09 197.428Z" fill="#3F3D56"/>
<path d="M274.682 203.849L272.429 203.064C272.307 203.021 272.207 202.932 272.151 202.815C272.094 202.699 272.086 202.565 272.129 202.443L272.913 200.19C272.956 200.068 273.045 199.967 273.162 199.911C273.278 199.855 273.413 199.847 273.535 199.889L275.788 200.674C275.91 200.717 276.01 200.806 276.066 200.922C276.123 201.039 276.131 201.173 276.088 201.295L275.303 203.548C275.261 203.67 275.171 203.771 275.055 203.827C274.938 203.883 274.804 203.891 274.682 203.849Z" fill="#CCCCCC"/>
<path d="M295.477 195.817L283.696 191.352C283.63 191.327 283.57 191.288 283.517 191.238C283.465 191.188 283.423 191.127 283.392 191.058C283.362 190.99 283.344 190.916 283.34 190.84C283.336 190.765 283.346 190.689 283.369 190.617C283.392 190.546 283.427 190.48 283.474 190.423C283.52 190.367 283.576 190.32 283.639 190.288C283.702 190.255 283.77 190.236 283.84 190.231C283.909 190.227 283.979 190.238 284.044 190.263L295.825 194.728C295.891 194.753 295.952 194.791 296.004 194.842C296.056 194.892 296.098 194.953 296.129 195.021C296.159 195.089 296.177 195.164 296.181 195.239C296.185 195.315 296.175 195.391 296.152 195.462C296.13 195.534 296.094 195.6 296.048 195.656C296.001 195.713 295.945 195.759 295.882 195.792C295.819 195.825 295.751 195.844 295.682 195.848C295.612 195.852 295.543 195.842 295.477 195.817Z" fill="#CCCCCC"/>
<path d="M293.113 201.44L282.067 197.613C281.943 197.57 281.841 197.479 281.783 197.361C281.726 197.243 281.718 197.108 281.762 196.984C281.805 196.86 281.896 196.759 282.014 196.702C282.133 196.645 282.269 196.637 282.394 196.68L293.44 200.507C293.501 200.529 293.558 200.562 293.607 200.605C293.656 200.648 293.696 200.7 293.724 200.759C293.753 200.817 293.769 200.881 293.773 200.946C293.777 201.01 293.768 201.075 293.746 201.137C293.725 201.198 293.691 201.255 293.648 201.303C293.604 201.352 293.552 201.391 293.493 201.419C293.434 201.448 293.37 201.464 293.305 201.468C293.24 201.471 293.175 201.462 293.113 201.44Z" fill="#CCCCCC"/>
<path d="M291.465 207.862L279.682 204.034C279.549 203.991 279.44 203.9 279.379 203.782C279.318 203.664 279.309 203.529 279.356 203.405C279.402 203.281 279.499 203.18 279.625 203.122C279.752 203.065 279.897 203.058 280.03 203.101L291.813 206.929C291.946 206.972 292.055 207.062 292.116 207.18C292.177 207.298 292.185 207.434 292.139 207.558C292.093 207.681 291.996 207.783 291.869 207.84C291.743 207.897 291.597 207.905 291.465 207.862Z" fill="#CCCCCC"/>
<path d="M322.62 211.903C322.705 211.69 322.785 211.474 322.859 211.254C323.82 208.381 323.646 205.229 322.374 202.491C321.102 199.753 318.838 197.653 316.078 196.652L312.235 208.138L322.62 211.903Z" fill="#97B8D7"/>
<path d="M310.833 208.533L314.619 197.278C312.618 196.556 310.457 196.457 308.403 196.991C306.348 197.526 304.489 198.672 303.056 200.287C301.623 201.903 300.677 203.917 300.336 206.082C299.996 208.247 300.274 210.468 301.138 212.471C302.002 214.474 303.413 216.171 305.198 217.354C306.982 218.537 309.062 219.153 311.18 219.126C313.299 219.1 315.364 218.432 317.12 217.205C318.876 215.978 320.247 214.246 321.064 212.222L310.833 208.533Z" fill="#3F3D56"/>
<path d="M324.288 192.57C324.242 192.057 324.32 191.54 324.516 191.057C324.711 190.574 325.02 190.136 325.419 189.775C325.819 189.413 326.301 189.136 326.83 188.963C327.359 188.791 327.923 188.727 328.481 188.776L334.162 177.388L337.921 182.907L331.95 192.875C331.798 193.731 331.309 194.507 330.576 195.054C329.842 195.602 328.916 195.883 327.971 195.846C327.027 195.808 326.13 195.454 325.452 194.85C324.773 194.246 324.359 193.435 324.288 192.57Z" fill="#FFB8B8"/>
<path d="M333.756 188.625C333.429 188.625 333.111 188.523 332.843 188.333L330.342 186.555C330.071 186.362 329.865 186.089 329.751 185.771C329.637 185.454 329.621 185.109 329.705 184.782L332.645 173.383L329.091 152.218C329.087 151.522 329.216 150.831 329.472 150.186C329.728 149.541 330.106 148.955 330.583 148.459C331.06 147.964 331.628 147.57 332.253 147.301C332.879 147.031 333.55 146.89 334.228 146.887C334.907 146.883 335.579 147.017 336.207 147.281C336.835 147.545 337.407 147.933 337.888 148.423C338.37 148.913 338.753 149.497 339.015 150.139C339.277 150.781 339.413 151.471 339.416 152.167L342.328 165.373C343.212 169.381 342.648 173.582 340.741 177.195L335.164 187.764C335.057 187.967 334.909 188.144 334.73 188.285C334.552 188.426 334.346 188.526 334.127 188.58C334.005 188.61 333.881 188.625 333.756 188.625Z" fill="#EE6A76"/>
<path d="M361.636 253.641H292.532C292.436 253.641 292.343 253.598 292.275 253.523C292.207 253.448 292.169 253.346 292.169 253.239C292.169 253.133 292.207 253.031 292.275 252.955C292.343 252.88 292.436 252.838 292.532 252.838H361.636C361.733 252.838 361.825 252.88 361.894 252.955C361.962 253.031 362 253.133 362 253.239C362 253.346 361.962 253.448 361.894 253.523C361.825 253.598 361.733 253.641 361.636 253.641Z" fill="#CCCCCC"/>
<path d="M178.192 248.825L183.086 248.824L185.415 231.969H178.191L178.192 248.825Z" fill="#A0616A"/>
<path d="M177.388 248.023L186.212 248.022C186.951 248.022 187.682 248.163 188.365 248.437C189.047 248.71 189.667 249.111 190.189 249.616C190.711 250.121 191.125 250.721 191.408 251.381C191.691 252.042 191.836 252.749 191.836 253.464V253.641L177.388 253.641L177.388 248.023Z" fill="#2F2E41"/>
<path d="M160.533 248.825L164.884 248.824L166.954 231.969H160.532L160.533 248.825Z" fill="#A0616A"/>
<path d="M159.73 248.023L168.554 248.022C169.292 248.022 170.024 248.163 170.706 248.437C171.388 248.71 172.008 249.111 172.53 249.616C173.053 250.121 173.467 250.721 173.749 251.381C174.032 252.042 174.178 252.749 174.178 253.464V253.641L159.73 253.641L159.73 248.023Z" fill="#2F2E41"/>
<path d="M179.394 130.031C184.492 130.031 188.625 126.078 188.625 121.201C188.625 116.325 184.492 112.372 179.394 112.372C174.297 112.372 170.164 116.325 170.164 121.201C170.164 126.078 174.297 130.031 179.394 130.031Z" fill="#A0616A"/>
<path d="M185.089 245.614H176.809C176.593 245.614 176.378 245.571 176.178 245.487C175.978 245.403 175.797 245.281 175.644 245.126C175.492 244.972 175.372 244.788 175.291 244.587C175.21 244.385 175.169 244.17 175.172 243.953L175.653 204.541C175.655 204.401 175.603 204.265 175.508 204.162C175.413 204.06 175.283 203.997 175.144 203.988C175.004 203.978 174.867 204.023 174.759 204.112C174.651 204.201 174.582 204.329 174.565 204.468L169.746 244.171C169.698 244.569 169.506 244.935 169.206 245.201C168.907 245.467 168.521 245.614 168.121 245.614H159.762C159.536 245.614 159.312 245.567 159.106 245.477C158.899 245.386 158.713 245.253 158.559 245.087C158.406 244.921 158.289 244.725 158.215 244.511C158.141 244.297 158.111 244.07 158.129 243.845L163.649 173.042L163.799 173.026L190.23 170.164L186.725 244.051C186.705 244.472 186.524 244.87 186.22 245.161C185.915 245.452 185.51 245.615 185.089 245.614Z" fill="#121535"/>
<path d="M164.626 177.388C164.207 177.387 163.805 177.22 163.505 176.924C163.204 176.628 163.029 176.225 163.016 175.8C162.874 171.328 162.63 155.858 165.466 144.5C166.24 141.397 167.977 138.629 170.421 136.606C172.865 134.582 175.885 133.411 179.036 133.264C182.137 133.092 185.213 133.915 187.827 135.617C190.442 137.319 192.461 139.813 193.6 142.745C198.366 155.025 202.87 170.161 197.255 172.535C189.896 175.647 170.496 177.034 164.725 177.384C164.692 177.386 164.659 177.388 164.626 177.388Z" fill="#EE6A76"/>
<path d="M198.592 112.366C198.731 112.51 198.881 112.642 199.041 112.761L198.112 130.643L194.244 132.626L196.469 138.86L203.657 136.017C204.237 135.787 204.728 135.375 205.055 134.843C205.381 134.31 205.527 133.686 205.469 133.063L203.586 112.779C204.202 112.319 204.664 111.682 204.909 110.952C205.155 110.223 205.173 109.436 204.961 108.696C204.749 107.956 204.317 107.299 203.723 106.811C203.129 106.323 202.4 106.027 201.634 105.964C200.868 105.901 200.1 106.072 199.434 106.456C198.768 106.84 198.234 107.418 197.904 108.113C197.574 108.808 197.463 109.588 197.586 110.347C197.709 111.107 198.06 111.811 198.592 112.366Z" fill="#A0616A"/>
<path d="M197.865 131.123L200.574 138.912C200.651 139.134 200.68 139.369 200.659 139.603C200.637 139.837 200.567 140.064 200.451 140.268C200.336 140.472 200.178 140.648 199.989 140.785C199.8 140.921 199.585 141.015 199.357 141.06L191.368 142.625C190.245 143.017 189.014 142.944 187.945 142.419C186.876 141.895 186.056 140.963 185.665 139.828C185.274 138.693 185.343 137.447 185.859 136.364C186.374 135.281 187.293 134.449 188.414 134.05L195.586 130.22C195.792 130.11 196.018 130.047 196.25 130.034C196.482 130.021 196.714 130.058 196.93 130.144C197.146 130.23 197.341 130.362 197.503 130.531C197.664 130.7 197.787 130.902 197.865 131.123Z" fill="#EE6A76"/>
<path d="M159.395 112.366C159.256 112.51 159.105 112.642 158.945 112.761L159.875 130.643L163.743 132.626L161.517 138.86L154.33 136.017C153.75 135.787 153.259 135.375 152.932 134.843C152.605 134.31 152.46 133.686 152.518 133.063L154.401 112.779C153.784 112.319 153.323 111.682 153.077 110.952C152.832 110.223 152.814 109.436 153.026 108.696C153.238 107.956 153.669 107.299 154.264 106.811C154.858 106.323 155.587 106.027 156.353 105.964C157.119 105.901 157.886 106.072 158.553 106.456C159.219 106.84 159.753 107.418 160.083 108.113C160.413 108.808 160.524 109.588 160.401 110.347C160.278 111.107 159.927 111.811 159.395 112.366Z" fill="#A0616A"/>
<path d="M161.057 130.144C161.273 130.058 161.505 130.021 161.737 130.034C161.969 130.047 162.195 130.111 162.4 130.22L169.573 134.05C170.693 134.449 171.612 135.281 172.128 136.364C172.643 137.447 172.713 138.693 172.322 139.828C171.931 140.963 171.111 141.895 170.041 142.419C168.972 142.944 167.741 143.017 166.618 142.625L158.63 141.06C158.402 141.015 158.186 140.921 157.997 140.785C157.808 140.648 157.651 140.472 157.535 140.268C157.42 140.064 157.349 139.837 157.328 139.603C157.307 139.37 157.336 139.134 157.413 138.912L160.122 131.124C160.199 130.902 160.322 130.7 160.484 130.531C160.645 130.362 160.84 130.23 161.057 130.144Z" fill="#EE6A76"/>
<path d="M183.119 122.791C183.072 121.643 183.357 120.507 183.939 119.521C184.521 118.535 185.374 117.741 186.395 117.237C189.1 115.825 190.799 112.815 190.055 110.066C189.102 106.547 184.363 104.265 180.523 105.476C179.484 105.849 178.482 106.32 177.53 106.882L175.021 108.241C173.95 108.783 172.917 109.399 171.929 110.086C170.45 111.187 169.291 112.67 168.573 114.378C167.854 116.087 167.603 117.96 167.846 119.8C168.34 123.377 170.658 126.658 173.831 128.904C175.044 129.82 176.446 130.45 177.932 130.746C179.453 131 181.146 130.712 182.258 129.756C183.996 128.262 183.816 125.76 183.254 123.671C183.18 123.383 183.135 123.088 183.119 122.791Z" fill="#2F2E41"/>
<path d="M213.144 253.641H144.04C143.943 253.641 143.851 253.598 143.783 253.523C143.714 253.448 143.676 253.346 143.676 253.239C143.676 253.133 143.714 253.031 143.783 252.955C143.851 252.88 143.943 252.838 144.04 252.838H213.144C213.24 252.838 213.333 252.88 213.401 252.955C213.469 253.031 213.508 253.133 213.508 253.239C213.508 253.346 213.469 253.448 213.401 253.523C213.333 253.598 213.24 253.641 213.144 253.641Z" fill="#CCCCCC"/>
<path d="M100.257 187.474L43.0287 210.803C42.0459 211.203 40.9437 211.198 39.9641 210.791C38.9845 210.384 38.2074 209.608 37.8033 208.632L20.2849 166.2C19.9904 165.485 19.9936 164.682 20.2937 163.969C20.5938 163.256 21.1663 162.69 21.8857 162.396L81.0484 138.279C81.7809 137.981 82.6023 137.984 83.3324 138.288C84.0625 138.591 84.6417 139.17 84.9429 139.897L102.442 182.282C102.844 183.259 102.84 184.354 102.43 185.327C102.02 186.301 101.239 187.073 100.257 187.474Z" fill="#E6E6E6"/>
<path d="M45.2658 205.192L95.5054 184.718C96.4621 184.328 97.2237 183.577 97.6227 182.629C98.0216 181.681 98.0253 180.615 97.6328 179.665L83.4309 145.277C83.2366 144.807 82.9508 144.379 82.59 144.018C82.2292 143.657 81.8003 143.37 81.328 143.174C80.8556 142.978 80.3489 142.876 79.8369 142.874C79.3249 142.872 78.8175 142.971 78.3438 143.164L28.1042 163.637C27.6305 163.831 27.1997 164.114 26.8364 164.473C26.4731 164.831 26.1845 165.257 25.9869 165.726C25.7894 166.196 25.6868 166.699 25.6851 167.208C25.6833 167.716 25.7825 168.22 25.9768 168.691L40.1787 203.079C40.373 203.549 40.6587 203.977 41.0196 204.338C41.3804 204.699 41.8092 204.985 42.2816 205.182C42.754 205.378 43.2607 205.48 43.7727 205.482C44.2847 205.483 44.7921 205.385 45.2658 205.192Z" fill="white"/>
<path d="M83.0227 154.985L82.2894 155.286L82.3396 155.408L83.0728 155.107L83.0227 154.985Z" fill="#E6E6E6"/>
<path d="M81.0687 155.84L79.5686 156.457L79.5179 156.333L81.0179 155.716L81.0687 155.84ZM78.0685 157.075L76.5684 157.692L76.5176 157.568L78.0177 156.951L78.0685 157.075ZM75.0683 158.31L73.5682 158.927L73.5174 158.803L75.0175 158.185L75.0683 158.31ZM72.068 159.544L70.5679 160.162L70.5172 160.038L72.0173 159.42L72.068 159.544ZM69.0678 160.779L67.5677 161.397L67.5169 161.272L69.017 160.655L69.0678 160.779ZM66.0676 162.014L64.5675 162.631L64.5167 162.507L66.0168 161.89L66.0676 162.014ZM63.0674 163.249L61.5673 163.866L61.5165 163.742L63.0166 163.125L63.0674 163.249ZM60.0671 164.484L58.567 165.101L58.5163 164.977L60.0164 164.36L60.0671 164.484ZM57.0669 165.719L55.5668 166.336L55.516 166.212L57.0161 165.594L57.0669 165.719ZM54.0667 166.953L52.5666 167.571L52.5158 167.447L54.0159 166.829L54.0667 166.953ZM51.0664 168.188L49.5663 168.806L49.5156 168.681L51.0157 168.064L51.0664 168.188ZM48.0662 169.423L46.5661 170.04L46.5153 169.916L48.0154 169.299L48.0662 169.423ZM45.066 170.658L43.5659 171.275L43.5151 171.151L45.0152 170.534L45.066 170.658ZM42.0658 171.893L40.5656 172.51L40.5149 172.386L42.015 171.768L42.0658 171.893ZM39.0655 173.127L37.5654 173.745L37.5147 173.621L39.0148 173.003L39.0655 173.127ZM36.0653 174.362L34.5652 174.98L34.5144 174.856L36.0145 174.238L36.0653 174.362Z" fill="#E6E6E6"/>
<path d="M33.4033 175.345L32.67 175.646L32.7202 175.768L33.4535 175.467L33.4033 175.345Z" fill="#E6E6E6"/>
<path d="M63.609 176.231L62.8757 176.532L62.9259 176.654L63.6592 176.354L63.609 176.231Z" fill="#E6E6E6"/>
<path d="M61.8048 177.506L60.3099 178.087L60.2586 177.968L61.7535 177.388L61.8048 177.506ZM58.8151 178.668L57.3202 179.248L57.2688 179.13L58.7637 178.549L58.8151 178.668ZM55.8253 179.829L54.3304 180.41L54.2791 180.291L55.774 179.711L55.8253 179.829ZM52.8356 180.991L51.3407 181.571L51.2893 181.453L52.7842 180.872L52.8356 180.991ZM49.8458 182.152L48.3509 182.733L48.2996 182.614L49.7945 182.033L49.8458 182.152ZM46.856 183.313L45.3612 183.894L45.3098 183.776L46.8047 183.195L46.856 183.313ZM43.8663 184.475L42.3714 185.056L42.3201 184.937L43.8149 184.356L43.8663 184.475ZM40.8766 185.636L39.3817 186.217L39.3303 186.098L40.8252 185.518L40.8766 185.636Z" fill="#E6E6E6"/>
<path d="M38.0663 186.713L37.333 187.014L37.3831 187.136L38.1164 186.835L38.0663 186.713Z" fill="#E6E6E6"/>
<path d="M51.5162 187.477L50.783 187.778L50.8331 187.901L51.5664 187.6L51.5162 187.477Z" fill="#E6E6E6"/>
<path d="M48.9625 188.748L47.5273 189.365L47.4793 189.243L48.9145 188.625L48.9625 188.748ZM46.0921 189.983L44.6569 190.6L44.6089 190.478L46.0441 189.86L46.0921 189.983ZM43.2217 191.218L41.7864 191.836L41.7385 191.713L43.1737 191.095L43.2217 191.218Z" fill="#E6E6E6"/>
<path d="M40.2722 192.091L39.5389 192.392L39.5891 192.514L40.3224 192.213L40.2722 192.091Z" fill="#E6E6E6"/>
<path d="M55.2803 196.655L54.547 196.956L54.5971 197.078L55.3304 196.777L55.2803 196.655Z" fill="#E6E6E6"/>
<path d="M52.9758 197.577L51.5406 198.194L51.4927 198.072L52.9279 197.454L52.9758 197.577ZM50.1054 198.812L48.6702 199.43L48.6222 199.307L50.0574 198.689L50.1054 198.812ZM47.235 200.047L45.7998 200.665L45.7518 200.542L47.187 199.925L47.235 200.047Z" fill="#E6E6E6"/>
<path d="M44.0367 201.268L43.3035 201.569L43.3536 201.692L44.0869 201.391L44.0367 201.268Z" fill="#E6E6E6"/>
<path d="M47.3569 199.862L89.7132 182.624C90.7383 182.206 91.5542 181.401 91.9819 180.386C92.4095 179.372 92.4141 178.23 91.9945 177.213L83.4366 156.519L83.3539 156.555L72.9597 181.21L65.2505 178.013C65.1083 177.953 64.9541 177.927 64.8 177.937C64.646 177.946 64.4963 177.991 64.3626 178.068C64.1618 178.187 64.0065 178.37 63.9207 178.586L58.4732 191.506L52.8367 189.168C52.7151 189.118 52.5847 189.092 52.4528 189.091C52.321 189.091 52.1903 189.116 52.0683 189.166C51.9464 189.215 51.8354 189.288 51.7419 189.381C51.6484 189.473 51.5741 189.582 51.5232 189.703C51.4872 189.791 48.0118 198.25 47.3569 199.862Z" fill="#97B8D7"/>
<path d="M47.4781 200.665L47.3569 200.614L51.6805 190.187C51.7949 189.912 52.013 189.694 52.2868 189.581C52.5605 189.467 52.8677 189.468 53.1408 189.583L58.6217 191.895L63.9946 178.937C64.1091 178.662 64.3271 178.444 64.6009 178.331C64.8747 178.217 65.1818 178.218 65.455 178.333L72.9918 181.512L83.3555 156.519L83.4767 156.57L73.0622 181.685L65.4043 178.455C65.285 178.405 65.157 178.379 65.0277 178.378C64.8983 178.378 64.7702 178.403 64.6505 178.453C64.5309 178.502 64.4221 178.575 64.3303 178.667C64.2385 178.759 64.1656 178.868 64.1157 178.988L58.6921 192.068L53.0902 189.705C52.8492 189.604 52.5782 189.603 52.3366 189.703C52.095 189.803 51.9026 189.996 51.8016 190.238L47.4781 200.665Z" fill="#3F3D56"/>
<path d="M51.3705 188.625C51.8138 188.625 52.1732 188.086 52.1732 187.421C52.1732 186.756 51.8138 186.217 51.3705 186.217C50.9272 186.217 50.5679 186.756 50.5679 187.421C50.5679 188.086 50.9272 188.625 51.3705 188.625Z" fill="#3F3D56"/>
<path d="M63.4103 177.388C63.8536 177.388 64.213 176.849 64.213 176.184C64.213 175.52 63.8536 174.98 63.4103 174.98C62.967 174.98 62.6077 175.52 62.6077 176.184C62.6077 176.849 62.967 177.388 63.4103 177.388Z" fill="#3F3D56"/>
<path d="M82.6739 155.716C83.1172 155.716 83.4765 155.356 83.4765 154.913C83.4765 154.47 83.1172 154.11 82.6739 154.11C82.2306 154.11 81.8712 154.47 81.8712 154.913C81.8712 155.356 82.2306 155.716 82.6739 155.716Z" fill="#3F3D56"/>
<path d="M30.7087 186.62C31.1594 186.379 31.5553 186.036 31.8688 185.613C32.1822 185.191 32.4054 184.7 32.5228 184.175C32.6402 183.649 32.6488 183.103 32.5481 182.574C32.4474 182.045 32.2398 181.546 31.9399 181.113L34.5143 154.11H28.9507L26.9048 180.477C26.2591 181.065 25.8372 181.888 25.7189 182.788C25.6007 183.688 25.7944 184.604 26.2633 185.361C26.7322 186.118 27.4437 186.664 28.263 186.896C29.0823 187.128 29.9526 187.03 30.7087 186.62Z" fill="#FFB8B8"/>
<path d="M36.5212 139.663C41.1758 139.663 44.9491 135.889 44.9491 131.235C44.9491 126.58 41.1758 122.807 36.5212 122.807C31.8666 122.807 28.0933 126.58 28.0933 131.235C28.0933 135.889 31.8666 139.663 36.5212 139.663Z" fill="#FFB8B8"/>
<path d="M37.6273 170.164C37.2814 170.164 36.9452 170.054 36.6701 169.85C36.395 169.645 36.1963 169.359 36.1045 169.034C35.4123 166.586 33.6113 162.445 30.7519 156.727C30.1066 155.435 29.7494 154.024 29.7034 152.588C29.6575 151.151 29.924 149.722 30.4854 148.393C31.0468 147.064 31.8904 145.865 32.9609 144.876C34.0314 143.887 35.3046 143.129 36.697 142.653C38.0165 142.199 39.4161 142.008 40.8129 142.09C42.2096 142.172 43.5753 142.526 44.829 143.132C46.0828 143.737 47.1991 144.581 48.112 145.613C49.0249 146.646 49.7159 147.847 50.1439 149.144C52.3603 155.91 52.2533 163.158 52.1044 165.96C52.0859 166.297 51.9543 166.62 51.7298 166.877C51.5053 167.135 51.2002 167.314 50.8613 167.387L37.9668 170.129C37.8553 170.153 37.7414 170.164 37.6273 170.164Z" fill="#EE6A76"/>
<path d="M49.7659 249.627H54.1165L56.1864 233.574L49.7651 233.575L49.7659 249.627Z" fill="#FFB8B8"/>
<path d="M62.1476 253.437L48.9746 253.437L48.9744 248.347L57.0578 248.346C57.7262 248.346 58.388 248.478 59.0055 248.734C59.623 248.99 60.1841 249.365 60.6567 249.837C61.1294 250.31 61.5043 250.871 61.7601 251.489C62.0159 252.106 62.1476 252.768 62.1476 253.437Z" fill="#2F2E41"/>
<path d="M8.02649 244.314L11.5976 246.416L20.8691 232.664L15.5991 229.561L8.02649 244.314Z" fill="#FFB8B8"/>
<path d="M16.8424 253.437L5.29897 247.089L7.75095 242.629L14.8344 246.523C16.0173 247.174 16.8934 248.268 17.2699 249.564C17.6465 250.861 17.4927 252.253 16.8424 253.437Z" fill="#2F2E41"/>
<path d="M49.9173 240.799C49.5436 240.798 49.1828 240.662 48.9022 240.415C48.6215 240.167 48.4403 239.826 48.3922 239.455L43.1473 198.973C43.1242 198.794 43.0451 198.627 42.9214 198.496C42.7977 198.364 42.6357 198.276 42.4586 198.242C42.2815 198.208 42.0983 198.232 41.9352 198.308C41.7721 198.385 41.6374 198.512 41.5503 198.67L19.6917 238.392C19.5114 238.716 19.2208 238.965 18.8728 239.093C18.5249 239.221 18.1427 239.219 17.7957 239.089L13.0311 237.271C12.8395 237.197 12.6644 237.087 12.5161 236.945C12.3677 236.803 12.2492 236.633 12.1675 236.445C12.0857 236.256 12.0423 236.053 12.0399 235.848C12.0375 235.643 12.0761 235.439 12.1534 235.249L27.2954 197.991C27.3337 197.897 27.3597 197.797 27.3727 197.696C29.4236 181.797 34.6418 173.711 36.1922 171.612C36.3054 171.458 36.38 171.278 36.4095 171.089C36.439 170.9 36.4227 170.706 36.3618 170.525L36.1487 169.884C36.0636 169.63 36.0461 169.358 36.0981 169.095C36.15 168.832 36.2696 168.587 36.4449 168.385C42.0316 162.011 51.7689 165.489 51.8666 165.525L51.9154 165.543L51.946 165.585C62.8644 180.583 58.8275 229.296 57.9074 238.909C57.873 239.27 57.7122 239.608 57.4534 239.861C57.1946 240.115 56.8545 240.269 56.4932 240.296L50.0369 240.794C49.9967 240.797 49.9569 240.799 49.9173 240.799Z" fill="#121535"/>
<path d="M69.0554 140.795C69.0127 140.977 68.9849 141.162 68.9722 141.349L54.0485 149.724L50.4211 147.692L46.5541 152.617L52.6164 156.82C53.1062 157.159 53.696 157.335 54.2972 157.321C54.8985 157.306 55.4787 157.103 55.9509 156.741L71.3398 144.931C72.0343 145.182 72.7906 145.22 73.5081 145.042C74.2257 144.864 74.8704 144.477 75.3566 143.934C75.8427 143.39 76.1473 142.716 76.2298 142C76.3123 141.284 76.1688 140.561 75.8184 139.926C75.4679 139.292 74.9272 138.776 74.268 138.448C73.6089 138.119 72.8626 137.994 72.1284 138.088C71.3942 138.182 70.7069 138.492 70.158 138.975C69.6091 139.459 69.2245 140.094 69.0554 140.795Z" fill="#FFB8B8"/>
<path d="M53.457 149.792L48.6979 155.923C48.5625 156.097 48.3908 156.24 48.1947 156.343C47.9985 156.446 47.7824 156.505 47.561 156.517C47.3397 156.529 47.1183 156.494 46.9121 156.413C46.7058 156.332 46.5194 156.208 46.3656 156.05L40.9781 150.489C40.0841 149.795 39.5034 148.777 39.3632 147.659C39.223 146.54 39.5348 145.412 40.2302 144.521C40.9257 143.631 41.948 143.051 43.073 142.908C44.198 142.766 45.3339 143.073 46.2317 143.761L52.9889 147.517C53.1824 147.625 53.3502 147.772 53.481 147.95C53.6118 148.128 53.7025 148.332 53.7469 148.548C53.7913 148.764 53.7884 148.987 53.7384 149.201C53.6884 149.416 53.5924 149.617 53.457 149.792Z" fill="#EE6A76"/>
<path d="M34.9163 160.508L27.6843 159.186C27.4785 159.148 27.2832 159.066 27.1116 158.945C26.94 158.824 26.7961 158.667 26.6898 158.484C26.5835 158.302 26.5173 158.098 26.4956 157.888C26.474 157.677 26.4974 157.464 26.5643 157.263L28.9087 150.231C29.1047 149.165 29.7098 148.222 30.5913 147.608C31.4728 146.993 32.5588 146.758 33.6111 146.954C34.6633 147.15 35.5961 147.76 36.2047 148.652C36.8134 149.543 37.0483 150.643 36.8579 151.709L36.6291 159.104C36.6225 159.316 36.5709 159.524 36.4779 159.714C36.3849 159.903 36.2526 160.071 36.09 160.204C35.9275 160.337 35.7385 160.433 35.5359 160.486C35.3334 160.538 35.122 160.546 34.9163 160.508Z" fill="#FF6584"/>
<path d="M37.7017 129.135C39.8784 130.609 42.7364 132.124 44.9596 130.554C45.655 130.03 46.1602 129.297 46.3995 128.466C46.6389 127.634 46.5995 126.747 46.2873 125.939C45.2228 122.927 42.298 121.601 39.5013 120.584C35.8654 119.263 31.9066 118.211 28.1532 119.158C24.3998 120.104 21.0827 123.7 21.7602 127.474C22.3051 130.509 25.198 133.034 24.7873 136.09C24.374 139.165 20.8793 140.783 17.794 141.333C14.7088 141.883 11.2563 142.059 9.03906 144.252C6.21056 147.05 6.91688 152.05 9.57839 155.004C12.2399 157.958 16.2563 159.296 20.1481 160.207C25.3046 161.413 30.8817 162.046 35.7791 160.045C40.6764 158.044 44.4875 152.656 43.0688 147.604C42.4695 145.47 41.0579 143.667 39.6936 141.911C38.3293 140.155 36.9478 138.32 36.4274 136.165C35.9937 134.37 36.3147 132.286 37.5176 130.94C37.7364 130.704 37.8741 130.406 37.911 130.088C37.9478 129.77 37.8818 129.449 37.7226 129.17L37.7017 129.135Z" fill="#F8A45B"/>
<path d="M69.4678 253.641H0.363706C0.267245 253.641 0.174735 253.598 0.106527 253.523C0.0383186 253.448 0 253.346 0 253.239C0 253.133 0.0383186 253.031 0.106527 252.955C0.174735 252.88 0.267245 252.838 0.363706 252.838H69.4678C69.5642 252.838 69.6567 252.88 69.725 252.955C69.7932 253.031 69.8315 253.133 69.8315 253.239C69.8315 253.346 69.7932 253.448 69.725 253.523C69.6567 253.598 69.5642 253.641 69.4678 253.641Z" fill="#CCCCCC"/>
</svg>
